<svg width="437" height="114" viewBox="0 0 437 114" fill="none" xmlns="http://www.w3.org/2000/svg">
<mask id="mask0_28_33" style="mask-type:alpha" maskUnits="userSpaceOnUse" x="0" y="0" width="437" height="114">
<rect width="437" height="114" fill="#D3D3D3"/>
</mask>
<g mask="url(#mask0_28_33)">
<path d="M59.224 7.872V10.192C56.5947 10.2693 54.584 10.5787 53.192 11.12C51.8773 11.584 50.988 12.512 50.524 13.904C50.06 15.2187 49.828 17.3067 49.828 20.168V77.704C49.828 80.488 50.0213 82.6147 50.408 84.084C50.872 85.476 51.7227 86.4427 52.96 86.984C54.1973 87.448 56.0533 87.68 58.528 87.68H62.008C61.6987 90.696 61.4667 93.596 61.312 96.38C61.2347 99.164 61.196 101.291 61.196 102.76C61.196 104.307 61.2347 105.699 61.312 106.936C61.3893 108.251 61.4667 109.372 61.544 110.3H58.876C58.1027 105.196 56.8653 101.136 55.164 98.12C53.4627 95.1813 51.2587 93.0933 48.552 91.856C45.9227 90.6187 42.7907 90 39.156 90H11.084C7.44933 90 4.27867 90.6187 1.572 91.856C-1.05733 93.0933 -3.22267 95.1813 -4.924 98.12C-6.62533 101.136 -7.86267 105.196 -8.636 110.3H-11.304C-11.1493 109.372 -11.072 108.251 -11.072 106.936C-10.9947 105.699 -10.956 104.307 -10.956 102.76C-10.956 101.291 -11.0333 99.164 -11.188 96.38C-11.2653 93.596 -11.4587 90.696 -11.768 87.68H21.988C24.6173 87.68 26.5893 87.448 27.904 86.984C29.296 86.4427 30.224 85.476 30.688 84.084C31.152 82.6147 31.384 80.488 31.384 77.704V20.168C31.384 17.3067 31.1133 15.18 30.572 13.788C30.108 12.396 29.2573 11.468 28.02 11.004C26.86 10.4627 25.3133 10.192 23.38 10.192H21.872C20.248 10.192 18.9333 10.4627 17.928 11.004C16.9227 11.468 16.1493 12.4347 15.608 13.904C15.144 15.296 14.796 17.384 14.564 20.168C14.1773 24.576 13.7907 29.332 13.404 34.436C13.0947 39.54 12.6693 44.7213 12.128 49.98C11.5867 55.1613 10.8133 60.1493 9.808 64.944C8.88 69.6613 7.604 73.9147 5.98 77.704C4.356 81.416 2.268 84.3933 -0.284 86.636C-2.836 88.8013 -5.968 89.884 -9.68 89.884V87.68C-6.12267 87.68 -3.14533 86.3653 -0.748 83.736C1.64933 81.0293 3.58267 77.3947 5.052 72.832C6.52133 68.2693 7.68133 63.088 8.532 57.288C9.46 51.4107 10.156 45.3013 10.62 38.96C11.084 32.6187 11.5093 26.3547 11.896 20.168C12.0507 17.4613 11.896 15.412 11.432 14.02C11.0453 12.628 10.156 11.6613 8.764 11.12C7.372 10.5787 5.284 10.2693 2.5 10.192V7.872C4.124 7.94933 6.05733 8.02666 8.3 8.104C10.5427 8.18133 12.592 8.22 14.448 8.22C16.2267 8.22 17.928 8.18133 19.552 8.104C21.2533 7.94933 22.9547 7.872 24.656 7.872C27.5947 7.872 30.2627 7.94933 32.66 8.104C35.0573 8.18133 37.9187 8.22 41.244 8.22C43.1773 8.22 45.2653 8.22 47.508 8.22C49.828 8.14266 51.9933 8.104 54.004 8.104C56.092 8.02666 57.832 7.94933 59.224 7.872ZM122.84 19.472C122.531 22.1787 122.299 24.8467 122.144 27.476C122.067 30.028 122.028 32 122.028 33.392C122.028 34.784 122.067 36.1373 122.144 37.452C122.221 38.6893 122.299 39.7333 122.376 40.584H119.708C118.548 33.7013 116.499 28.9067 113.56 26.2C110.621 23.4933 106.716 22.14 101.844 22.14H97.552C95.696 22.14 94.2267 22.3333 93.144 22.72C92.1387 23.0293 91.404 23.7253 90.94 24.808C90.476 25.8133 90.244 27.4373 90.244 29.68V79.792C90.244 81.9573 90.476 83.5813 90.94 84.664C91.404 85.7467 92.1387 86.4813 93.144 86.868C94.2267 87.1773 95.696 87.332 97.552 87.332H102.54C106.097 87.332 109.191 86.6747 111.82 85.36C114.449 84.0453 116.615 81.88 118.316 78.864C120.017 75.7707 121.255 71.672 122.028 66.568H124.696C124.464 68.7333 124.348 71.5173 124.348 74.92C124.348 76.3893 124.387 78.5547 124.464 81.416C124.619 84.2 124.851 87.0613 125.16 90C121.371 89.8453 117.117 89.768 112.4 89.768C107.683 89.6907 103.468 89.652 99.756 89.652C97.2814 89.652 93.956 89.652 89.78 89.652C85.6814 89.652 81.312 89.6907 76.672 89.768C72.1094 89.768 67.8174 89.8453 63.796 90V87.68C66.2707 87.5253 68.1267 87.216 69.364 86.752C70.6014 86.288 71.4134 85.36 71.8 83.968C72.264 82.576 72.496 80.488 72.496 77.704V31.768C72.496 28.9067 72.264 26.8187 71.8 25.504C71.4134 24.112 70.6014 23.184 69.364 22.72C68.1267 22.1787 66.2707 21.8693 63.796 21.792V19.472C67.8174 19.5493 72.1094 19.6267 76.672 19.704C81.312 19.7813 85.6814 19.82 89.78 19.82C93.956 19.82 97.2814 19.82 99.756 19.82C103.159 19.82 106.987 19.82 111.24 19.82C115.571 19.7427 119.437 19.6267 122.84 19.472ZM105.324 53.344C105.324 53.344 105.324 53.7307 105.324 54.504C105.324 55.2773 105.324 55.664 105.324 55.664H86.764C86.764 55.664 86.764 55.2773 86.764 54.504C86.764 53.7307 86.764 53.344 86.764 53.344H105.324ZM110.08 40.816C109.771 44.3733 109.616 47.1573 109.616 49.168C109.693 51.1787 109.732 52.9573 109.732 54.504C109.732 56.0507 109.771 57.8293 109.848 59.84C109.925 61.8507 110.119 64.6347 110.428 68.192H107.76C107.528 66.0267 106.948 64.016 106.02 62.16C105.169 60.2267 103.893 58.68 102.192 57.52C100.568 56.2827 98.4027 55.664 95.696 55.664V53.344C98.48 53.344 100.645 52.648 102.192 51.256C103.816 49.7867 105.015 48.0853 105.788 46.152C106.639 44.2187 107.18 42.44 107.412 40.816H110.08ZM199.096 19.472C198.786 22.5653 198.554 25.5813 198.4 28.52C198.322 31.4587 198.284 33.7013 198.284 35.248C198.284 37.2587 198.322 39.1533 198.4 40.932C198.477 42.7107 198.554 44.2187 198.632 45.456H195.964C194.958 39.7333 193.682 35.1707 192.136 31.768C190.589 28.288 188.617 25.8133 186.22 24.344C183.822 22.8747 180.806 22.14 177.172 22.14H173.576V76.544C173.576 79.6373 173.846 81.9573 174.388 83.504C175.006 85.0507 176.166 86.0947 177.868 86.636C179.569 87.1773 182.044 87.5253 185.292 87.68V90C183.9 89.9227 181.966 89.884 179.492 89.884C177.017 89.8067 174.426 89.768 171.72 89.768C169.013 89.6907 166.577 89.652 164.412 89.652C162.092 89.652 159.578 89.6907 156.872 89.768C154.242 89.768 151.768 89.8067 149.448 89.884C147.128 89.884 145.349 89.9227 144.112 90V87.68C147.36 87.5253 149.834 87.1773 151.536 86.636C153.237 86.0947 154.358 85.0507 154.9 83.504C155.518 81.9573 155.828 79.6373 155.828 76.544V22.14H152.232C148.597 22.14 145.581 22.8747 143.184 24.344C140.786 25.8133 138.814 28.288 137.268 31.768C135.798 35.1707 134.522 39.7333 133.44 45.456H130.772C130.926 44.2187 131.004 42.7107 131.004 40.932C131.081 39.1533 131.12 37.2587 131.12 35.248C131.12 33.7013 131.042 31.4587 130.888 28.52C130.81 25.5813 130.617 22.5653 130.308 19.472C133.71 19.5493 137.384 19.6267 141.328 19.704C145.349 19.7813 149.37 19.82 153.392 19.82C157.413 19.82 161.086 19.82 164.412 19.82C167.814 19.82 171.526 19.82 175.548 19.82C179.646 19.82 183.745 19.7813 187.844 19.704C191.942 19.6267 195.693 19.5493 199.096 19.472ZM231.992 19.24L259.6 80.256C260.914 82.9627 262.152 84.8573 263.312 85.94C264.549 87.0227 265.747 87.6027 266.908 87.68V90C265.129 89.8453 262.848 89.768 260.064 89.768C257.28 89.6907 254.495 89.652 251.711 89.652C248 89.652 244.481 89.6907 241.155 89.768C237.907 89.768 235.317 89.8453 233.383 90V87.68C236.864 87.5253 239.145 86.7907 240.228 85.476C241.388 84.1613 241.117 81.648 239.416 77.936L220.971 35.828L223.291 32.812L207.863 67.844C206.162 71.6333 205.118 74.804 204.731 77.356C204.345 79.8307 204.499 81.8027 205.195 83.272C205.891 84.7413 207.051 85.824 208.675 86.52C210.299 87.1387 212.31 87.5253 214.707 87.68V90C212.465 89.8453 210.261 89.768 208.095 89.768C206.007 89.6907 203.765 89.652 201.367 89.652C199.898 89.652 198.235 89.6907 196.379 89.768C194.523 89.768 193.054 89.8453 191.971 90V87.68C193.905 87.216 195.645 86.0173 197.191 84.084C198.738 82.0733 200.401 79.1347 202.179 75.268L226.655 19.24C227.583 19.3173 228.473 19.356 229.323 19.356C230.251 19.356 231.141 19.3173 231.992 19.24ZM240.459 62.392V64.712H208.211L209.371 62.392H240.459ZM339.286 19.472V21.792C336.889 21.8693 335.033 22.1787 333.718 22.72C332.481 23.184 331.63 24.112 331.166 25.504C330.779 26.8187 330.586 28.9067 330.586 31.768V77.704C330.586 80.488 330.779 82.576 331.166 83.968C331.63 85.36 332.481 86.288 333.718 86.752C335.033 87.216 336.889 87.5253 339.286 87.68V90C337.353 89.8453 334.801 89.768 331.63 89.768C328.459 89.6907 325.211 89.652 321.886 89.652C318.561 89.652 315.274 89.6907 312.026 89.768C308.778 89.768 306.149 89.8453 304.138 90V87.68C306.613 87.5253 308.469 87.216 309.706 86.752C310.943 86.288 311.755 85.36 312.142 83.968C312.606 82.576 312.838 80.488 312.838 77.704V31.768C312.838 28.9067 312.645 26.78 312.258 25.388C311.949 23.9187 311.291 22.952 310.286 22.488C309.358 22.024 307.927 21.792 305.994 21.792H304.486C302.553 21.792 301.122 22.024 300.194 22.488C299.343 22.952 298.763 23.9187 298.454 25.388C298.145 26.78 297.874 28.9067 297.642 31.768C297.178 36.5627 296.753 41.7053 296.366 47.196C295.979 52.6093 295.361 57.9453 294.51 63.204C293.737 68.4627 292.577 73.2187 291.03 77.472C289.561 81.7253 287.511 85.1667 284.882 87.796C282.253 90.348 278.889 91.624 274.79 91.624C272.547 91.624 270.459 91.16 268.526 90.232C266.593 89.3813 265.046 88.144 263.886 86.52C262.726 84.896 262.146 82.9627 262.146 80.72C262.146 77.7813 263.151 75.4227 265.162 73.644C267.25 71.8653 269.802 70.976 272.818 70.976C275.293 70.976 277.303 71.5947 278.85 72.832C280.397 74.0693 281.17 75.9253 281.17 78.4C281.17 80.952 280.281 83.156 278.502 85.012C276.801 86.868 274.635 88.144 272.006 88.84C272.393 89.072 272.818 89.2267 273.282 89.304C273.823 89.3813 274.442 89.42 275.138 89.42C278.386 89.42 281.093 88.26 283.258 85.94C285.501 83.62 287.318 80.488 288.71 76.544C290.102 72.6 291.185 68.1533 291.958 63.204C292.731 58.1773 293.35 52.996 293.814 47.66C294.278 42.2467 294.665 36.9493 294.974 31.768C295.206 29.0613 295.09 27.012 294.626 25.62C294.239 24.228 293.35 23.2613 291.958 22.72C290.566 22.1787 288.439 21.8693 285.578 21.792V19.472C287.125 19.5493 288.942 19.6267 291.03 19.704C293.118 19.704 294.974 19.704 296.598 19.704C297.835 19.704 298.763 19.704 299.382 19.704C300.078 19.6267 300.89 19.588 301.818 19.588C302.823 19.5107 304.293 19.472 306.226 19.472C308.391 19.472 310.286 19.5107 311.91 19.588C313.611 19.6653 315.313 19.7427 317.014 19.82C318.715 19.82 320.803 19.82 323.278 19.82C324.747 19.82 326.449 19.82 328.382 19.82C330.393 19.7427 332.365 19.704 334.298 19.704C336.309 19.6267 337.971 19.5493 339.286 19.472ZM378.876 19.472V21.792C376.478 21.8693 374.622 22.1787 373.308 22.72C372.07 23.184 371.22 24.112 370.756 25.504C370.369 26.8187 370.176 28.9067 370.176 31.768V77.704C370.176 80.488 370.369 82.576 370.756 83.968C371.22 85.36 372.07 86.288 373.308 86.752C374.622 87.216 376.478 87.5253 378.876 87.68V90C376.71 89.8453 373.965 89.768 370.64 89.768C367.392 89.6907 364.066 89.652 360.664 89.652C357.261 89.652 354.052 89.6907 351.036 89.768C348.02 89.768 345.584 89.8453 343.728 90V87.68C346.202 87.5253 348.058 87.216 349.296 86.752C350.533 86.288 351.345 85.36 351.732 83.968C352.196 82.576 352.428 80.488 352.428 77.704V31.768C352.428 28.9067 352.196 26.8187 351.732 25.504C351.345 24.112 350.533 23.184 349.296 22.72C348.058 22.1787 346.202 21.8693 343.728 21.792V19.472C345.584 19.5493 348.02 19.6267 351.036 19.704C354.052 19.7813 357.261 19.82 360.664 19.82C364.066 19.82 367.392 19.7813 370.64 19.704C373.965 19.6267 376.71 19.5493 378.876 19.472ZM407.644 22.836C407.644 22.836 407.605 23.2613 407.528 24.112C407.45 24.9627 407.373 25.8133 407.296 26.664C407.218 27.5147 407.18 27.94 407.18 27.94L365.652 86.752C365.652 86.752 365.69 86.3267 365.768 85.476C365.845 84.6253 365.922 83.8133 366 83.04C366.077 82.1893 366.116 81.764 366.116 81.764L407.644 22.836ZM428.756 19.472V21.792C426.358 21.8693 424.502 22.1787 423.188 22.72C421.95 23.184 421.1 24.112 420.636 25.504C420.249 26.8187 420.056 28.9067 420.056 31.768V77.704C420.056 80.488 420.249 82.576 420.636 83.968C421.1 85.36 421.95 86.288 423.188 86.752C424.502 87.216 426.358 87.5253 428.756 87.68V90C426.977 89.8453 424.58 89.768 421.564 89.768C418.548 89.6907 415.3 89.652 411.82 89.652C408.494 89.652 405.169 89.6907 401.844 89.768C398.518 89.768 395.773 89.8453 393.608 90V87.68C396.082 87.5253 397.938 87.216 399.176 86.752C400.413 86.288 401.225 85.36 401.612 83.968C402.076 82.576 402.308 80.488 402.308 77.704V31.768C402.308 28.9067 402.076 26.8187 401.612 25.504C401.225 24.112 400.413 23.184 399.176 22.72C397.938 22.1787 396.082 21.8693 393.608 21.792V19.472C395.773 19.5493 398.518 19.6267 401.844 19.704C405.169 19.7813 408.494 19.82 411.82 19.82C415.377 19.82 418.741 19.7427 421.912 19.588C425.16 19.4333 427.441 19.3947 428.756 19.472Z" fill="#D3D3D3"/>
</g>
</svg>
