<svg width="874" height="152" viewBox="0 0 874 152" fill="none" xmlns="http://www.w3.org/2000/svg">
<mask id="mask0_26_8" style="mask-type:alpha" maskUnits="userSpaceOnUse" x="0" y="0" width="874" height="152">
<rect width="874" height="152" fill="#1E1E1E"/>
</mask>
<g mask="url(#mask0_26_8)">
<path d="M544.856 111.816V112.776C543.864 112.808 543.096 112.936 542.552 113.16C542.04 113.352 541.688 113.736 541.496 114.312C541.336 114.856 541.256 115.72 541.256 116.904V135.912C541.256 137.064 541.336 137.928 541.496 138.504C541.688 139.08 542.04 139.464 542.552 139.656C543.096 139.848 543.864 139.976 544.856 140.04V141C544.12 140.936 543.128 140.904 541.88 140.904C540.632 140.872 539.288 140.856 537.848 140.856C536.472 140.856 535.096 140.872 533.72 140.904C532.344 140.904 531.208 140.936 530.312 141V140.04C531.336 139.976 532.104 139.848 532.616 139.656C533.128 139.464 533.464 139.08 533.624 138.504C533.816 137.928 533.912 137.064 533.912 135.912V126.6H521.576V135.912C521.576 137.064 521.656 137.928 521.816 138.504C522.008 139.08 522.36 139.464 522.872 139.656C523.416 139.848 524.184 139.976 525.176 140.04V141C524.28 140.936 523.144 140.904 521.768 140.904C520.424 140.872 519.048 140.856 517.64 140.856C516.232 140.856 514.904 140.872 513.656 140.904C512.408 140.904 511.4 140.936 510.632 141V140.04C511.656 139.976 512.424 139.848 512.936 139.656C513.448 139.464 513.784 139.08 513.944 138.504C514.136 137.928 514.232 137.064 514.232 135.912V116.904C514.232 115.72 514.136 114.856 513.944 114.312C513.784 113.736 513.448 113.352 512.936 113.16C512.424 112.936 511.656 112.808 510.632 112.776V111.816C511.4 111.848 512.408 111.88 513.656 111.912C514.904 111.944 516.232 111.96 517.64 111.96C519.048 111.96 520.424 111.944 521.768 111.912C523.144 111.88 524.28 111.848 525.176 111.816V112.776C524.184 112.808 523.416 112.936 522.872 113.16C522.36 113.352 522.008 113.736 521.816 114.312C521.656 114.856 521.576 115.72 521.576 116.904V125.64H533.912V116.904C533.912 115.72 533.816 114.856 533.624 114.312C533.464 113.736 533.128 113.352 532.616 113.16C532.104 112.936 531.336 112.808 530.312 112.776V111.816C531.208 111.848 532.344 111.88 533.72 111.912C535.096 111.944 536.472 111.96 537.848 111.96C539.288 111.96 540.632 111.944 541.88 111.912C543.128 111.88 544.12 111.848 544.856 111.816ZM561.092 111.72L572.516 136.968C573.06 138.088 573.572 138.872 574.052 139.32C574.564 139.768 575.06 140.008 575.54 140.04V141C574.804 140.936 573.86 140.904 572.708 140.904C571.556 140.872 570.404 140.856 569.252 140.856C567.716 140.856 566.26 140.872 564.884 140.904C563.54 140.904 562.468 140.936 561.668 141V140.04C563.108 139.976 564.052 139.672 564.5 139.128C564.98 138.584 564.868 137.544 564.164 136.008L556.532 118.584L557.492 117.336L551.108 131.832C550.404 133.4 549.972 134.712 549.812 135.768C549.652 136.792 549.716 137.608 550.004 138.216C550.292 138.824 550.772 139.272 551.444 139.56C552.116 139.816 552.948 139.976 553.94 140.04V141C553.012 140.936 552.1 140.904 551.204 140.904C550.34 140.872 549.412 140.856 548.42 140.856C547.812 140.856 547.124 140.872 546.356 140.904C545.588 140.904 544.98 140.936 544.532 141V140.04C545.332 139.848 546.052 139.352 546.692 138.552C547.332 137.72 548.02 136.504 548.756 134.904L558.884 111.72C559.268 111.752 559.636 111.768 559.988 111.768C560.372 111.768 560.74 111.752 561.092 111.72ZM564.596 129.576V130.536H551.252L551.732 129.576H564.596ZM600.901 111.144C602.277 111.144 603.445 111.288 604.405 111.576C605.365 111.864 606.197 112.248 606.901 112.728C607.605 113.208 608.293 113.72 608.965 114.264C610.181 115.288 610.901 114.472 611.125 111.816H612.229C612.165 112.904 612.117 114.216 612.085 115.752C612.053 117.288 612.037 119.336 612.037 121.896H610.933C610.709 120.712 610.485 119.768 610.261 119.064C610.069 118.328 609.829 117.72 609.541 117.24C609.285 116.76 608.949 116.264 608.533 115.752C607.669 114.696 606.661 113.88 605.509 113.304C604.389 112.696 603.205 112.392 601.957 112.392C599.301 112.392 597.173 113.64 595.573 116.136C594.005 118.632 593.221 122.088 593.221 126.504C593.221 129.512 593.621 132.056 594.421 134.136C595.221 136.184 596.309 137.752 597.685 138.84C599.061 139.896 600.597 140.424 602.293 140.424C603.541 140.424 604.757 140.136 605.941 139.56C607.157 138.984 608.197 138.152 609.061 137.064C609.701 136.232 610.165 135.352 610.453 134.424C610.773 133.464 611.045 132.136 611.269 130.44H612.373C612.373 133.096 612.389 135.24 612.421 136.872C612.453 138.504 612.501 139.88 612.565 141H611.461C611.333 139.624 611.093 138.744 610.741 138.36C610.421 137.944 609.941 138.008 609.301 138.552C608.309 139.384 607.157 140.12 605.845 140.76C604.533 141.368 602.917 141.672 600.997 141.672C597.957 141.672 595.269 141.096 592.933 139.944C590.629 138.76 588.821 137.048 587.509 134.808C586.197 132.568 585.541 129.864 585.541 126.696C585.541 123.592 586.213 120.872 587.557 118.536C588.901 116.2 590.725 114.392 593.029 113.112C595.365 111.8 597.989 111.144 600.901 111.144ZM615.216 111.816C615.952 111.848 616.912 111.88 618.096 111.912C619.312 111.944 620.496 111.96 621.648 111.96C623.248 111.96 624.768 111.944 626.208 111.912C627.648 111.88 628.672 111.864 629.28 111.864C633.248 111.864 636.128 112.44 637.92 113.592C639.744 114.744 640.656 116.36 640.656 118.44C640.656 120.008 640.016 121.384 638.736 122.568C637.456 123.752 635.248 124.68 632.112 125.352V125.448C634.992 125.736 637.232 126.264 638.832 127.032C640.432 127.8 641.552 128.712 642.192 129.768C642.832 130.792 643.152 131.912 643.152 133.128C643.152 135.56 642.048 137.48 639.84 138.888C637.664 140.296 634.512 141 630.384 141C629.648 141 628.544 140.984 627.072 140.952C625.6 140.888 623.824 140.856 621.744 140.856C620.528 140.856 619.312 140.872 618.096 140.904C616.912 140.904 615.952 140.936 615.216 141V140.04C616.24 139.976 617.008 139.848 617.52 139.656C618.032 139.464 618.368 139.08 618.528 138.504C618.72 137.928 618.816 137.064 618.816 135.912V116.904C618.816 115.72 618.72 114.84 618.528 114.264C618.368 113.688 618.032 113.304 617.52 113.112C617.008 112.92 616.24 112.808 615.216 112.776V111.816ZM628.656 112.776C627.632 112.776 626.96 113.048 626.64 113.592C626.32 114.136 626.16 115.24 626.16 116.904V135.912C626.16 137.032 626.224 137.88 626.352 138.456C626.48 139.032 626.72 139.416 627.072 139.608C627.456 139.8 628 139.896 628.704 139.896C631.104 139.896 632.832 139.304 633.888 138.12C634.944 136.904 635.472 135.176 635.472 132.936C635.472 130.76 634.928 129.096 633.84 127.944C632.784 126.76 631.024 126.168 628.56 126.168H624.096C624.096 126.168 624.096 126.04 624.096 125.784C624.096 125.496 624.096 125.352 624.096 125.352H627.744C629.216 125.352 630.336 125.08 631.104 124.536C631.872 123.96 632.4 123.192 632.688 122.232C633.008 121.24 633.168 120.152 633.168 118.968C633.168 116.952 632.816 115.416 632.112 114.36C631.44 113.304 630.288 112.776 628.656 112.776ZM658.879 111.72L670.303 136.968C670.847 138.088 671.359 138.872 671.839 139.32C672.351 139.768 672.847 140.008 673.327 140.04V141C672.591 140.936 671.647 140.904 670.495 140.904C669.343 140.872 668.191 140.856 667.039 140.856C665.503 140.856 664.047 140.872 662.671 140.904C661.327 140.904 660.255 140.936 659.455 141V140.04C660.895 139.976 661.839 139.672 662.287 139.128C662.767 138.584 662.655 137.544 661.951 136.008L654.319 118.584L655.279 117.336L648.895 131.832C648.191 133.4 647.759 134.712 647.599 135.768C647.439 136.792 647.503 137.608 647.791 138.216C648.079 138.824 648.559 139.272 649.231 139.56C649.903 139.816 650.735 139.976 651.727 140.04V141C650.799 140.936 649.887 140.904 648.991 140.904C648.127 140.872 647.199 140.856 646.207 140.856C645.599 140.856 644.911 140.872 644.143 140.904C643.375 140.904 642.767 140.936 642.319 141V140.04C643.119 139.848 643.839 139.352 644.479 138.552C645.119 137.72 645.807 136.504 646.543 134.904L656.671 111.72C657.055 111.752 657.423 111.768 657.775 111.768C658.159 111.768 658.527 111.752 658.879 111.72ZM662.383 129.576V130.536H649.039L649.519 129.576H662.383ZM700.957 111.816V112.776C699.965 112.808 699.197 112.936 698.653 113.16C698.141 113.352 697.789 113.736 697.597 114.312C697.437 114.856 697.357 115.72 697.357 116.904V135.912C697.357 137.064 697.453 137.944 697.645 138.552C697.837 139.128 698.189 139.528 698.701 139.752C699.213 139.944 699.965 140.04 700.957 140.04H702.445C702.317 141.288 702.221 142.488 702.157 143.64C702.125 144.792 702.109 145.672 702.109 146.28C702.109 146.92 702.125 147.496 702.157 148.008C702.189 148.552 702.221 149.016 702.253 149.4H701.149C700.829 147.288 700.301 145.608 699.565 144.36C698.861 143.144 697.965 142.28 696.877 141.768C695.789 141.256 694.493 141 692.989 141H681.805C680.301 141 679.005 141.256 677.917 141.768C676.829 142.28 675.933 143.144 675.229 144.36C674.525 145.608 673.997 147.288 673.645 149.4H672.541C672.605 149.016 672.637 148.552 672.637 148.008C672.669 147.496 672.685 146.92 672.685 146.28C672.685 145.672 672.653 144.792 672.589 143.64C672.557 142.488 672.477 141.288 672.349 140.04H686.269C687.325 140.04 688.109 139.944 688.621 139.752C689.165 139.528 689.533 139.128 689.725 138.552C689.917 137.944 690.013 137.064 690.013 135.912V116.904C690.013 115.72 689.949 114.84 689.821 114.264C689.693 113.656 689.421 113.256 689.005 113.064C688.621 112.872 688.013 112.776 687.181 112.776H686.557C685.757 112.776 685.165 112.888 684.781 113.112C684.429 113.304 684.189 113.704 684.061 114.312C683.933 114.888 683.821 115.752 683.725 116.904C683.565 118.696 683.405 120.664 683.245 122.808C683.085 124.952 682.829 127.096 682.477 129.24C682.125 131.352 681.613 133.304 680.941 135.096C680.301 136.856 679.389 138.28 678.205 139.368C677.053 140.424 675.549 140.952 673.693 140.952V140.04C675.165 140.04 676.397 139.576 677.389 138.648C678.381 137.72 679.181 136.472 679.789 134.904C680.429 133.304 680.925 131.512 681.277 129.528C681.629 127.544 681.901 125.464 682.093 123.288C682.285 121.112 682.461 118.984 682.621 116.904C682.717 115.784 682.669 114.936 682.477 114.36C682.317 113.784 681.933 113.384 681.325 113.16C680.749 112.936 679.885 112.808 678.733 112.776V111.816C679.373 111.848 680.125 111.88 680.989 111.912C681.885 111.912 682.685 111.912 683.389 111.912C683.933 111.912 684.429 111.896 684.877 111.864C685.357 111.832 685.949 111.816 686.653 111.816C687.837 111.816 688.813 111.832 689.581 111.864C690.349 111.896 691.053 111.928 691.693 111.96C692.365 111.96 693.069 111.96 693.805 111.96C695.085 111.96 696.397 111.944 697.741 111.912C699.085 111.88 700.157 111.848 700.957 111.816ZM718.212 111.816V112.776C717.124 112.808 716.292 112.936 715.716 113.16C715.172 113.352 714.804 113.736 714.612 114.312C714.42 114.856 714.324 115.72 714.324 116.904V135.912C714.324 137.576 714.5 138.68 714.852 139.224C715.204 139.768 715.956 140.04 717.108 140.04C719.124 140.04 720.532 139.416 721.332 138.168C722.164 136.92 722.58 135.08 722.58 132.648C722.58 131.272 722.404 130.024 722.052 128.904C721.732 127.784 721.108 126.888 720.18 126.216C719.252 125.512 717.892 125.16 716.1 125.16H712.26V124.2H716.58C720.228 124.232 723.028 124.616 724.98 125.352C726.964 126.056 728.34 127.016 729.108 128.232C729.876 129.448 730.26 130.792 730.26 132.264C730.26 135.048 729.252 137.192 727.236 138.696C725.22 140.2 722.052 140.952 717.732 140.952C717.124 140.952 716.052 140.936 714.516 140.904C713.012 140.872 711.444 140.856 709.812 140.856C708.66 140.856 707.476 140.872 706.26 140.904C705.076 140.904 704.116 140.936 703.38 141V140.04C704.404 139.976 705.172 139.848 705.684 139.656C706.196 139.464 706.532 139.08 706.692 138.504C706.884 137.928 706.98 137.064 706.98 135.912V116.904C706.98 115.72 706.884 114.856 706.692 114.312C706.532 113.736 706.196 113.352 705.684 113.16C705.172 112.936 704.404 112.808 703.38 112.776V111.816C704.116 111.848 705.076 111.88 706.26 111.912C707.476 111.944 708.756 111.96 710.1 111.96C711.636 111.96 713.14 111.944 714.612 111.912C716.084 111.88 717.284 111.848 718.212 111.816ZM755.764 111.816C755.636 112.968 755.54 114.072 755.476 115.128C755.444 116.184 755.428 117 755.428 117.576C755.428 118.152 755.444 118.712 755.476 119.256C755.508 119.768 755.54 120.2 755.572 120.552H754.468C753.988 117.704 753.14 115.72 751.924 114.6C750.74 113.48 749.124 112.92 747.076 112.92H744.916C743.924 112.92 743.22 113.112 742.804 113.496C742.42 113.848 742.228 114.696 742.228 116.04V135.912C742.228 137 742.292 137.848 742.42 138.456C742.58 139.064 742.868 139.48 743.284 139.704C743.7 139.896 744.292 139.992 745.06 139.992C747.172 139.992 748.676 139.368 749.572 138.12C750.468 136.872 750.916 135.032 750.916 132.6C750.916 131.192 750.708 129.928 750.292 128.808C749.908 127.688 749.22 126.808 748.228 126.168C747.268 125.528 745.908 125.208 744.148 125.208H740.164C740.164 125.208 740.164 125.064 740.164 124.776C740.164 124.456 740.164 124.296 740.164 124.296H744.1C746.692 124.296 748.9 124.472 750.724 124.824C752.548 125.176 754.036 125.688 755.188 126.36C756.372 127.032 757.236 127.88 757.78 128.904C758.324 129.896 758.596 131.048 758.596 132.36C758.596 135.08 757.572 137.192 755.524 138.696C753.476 140.2 750.324 140.952 746.068 140.952C745.396 140.952 744.292 140.936 742.756 140.904C741.252 140.872 739.588 140.856 737.764 140.856C736.58 140.856 735.38 140.872 734.164 140.904C732.98 140.904 732.02 140.936 731.284 141V140.04C732.308 139.976 733.076 139.848 733.588 139.656C734.1 139.464 734.436 139.08 734.596 138.504C734.788 137.928 734.884 137.064 734.884 135.912V116.904C734.884 115.72 734.788 114.856 734.596 114.312C734.436 113.736 734.1 113.352 733.588 113.16C733.076 112.936 732.308 112.808 731.284 112.776V111.816C732.02 111.848 732.98 111.88 734.164 111.912C735.38 111.944 736.628 111.96 737.908 111.96C739.124 111.96 740.356 111.96 741.604 111.96C742.852 111.928 743.94 111.912 744.868 111.912C745.828 111.88 746.436 111.864 746.692 111.864C748.132 111.864 749.652 111.864 751.252 111.864C752.852 111.864 754.356 111.848 755.764 111.816ZM789.305 111.816V112.776C788.633 113.064 787.961 113.624 787.289 114.456C786.617 115.256 785.849 116.408 784.985 117.912L775.337 134.616L774.281 134.856L761.897 115.704C761.257 114.68 760.665 113.944 760.121 113.496C759.577 113.048 759.113 112.808 758.729 112.776V111.816C759.209 111.848 759.817 111.88 760.553 111.912C761.321 111.912 762.105 111.928 762.905 111.96C763.737 111.96 764.489 111.96 765.161 111.96C765.865 111.96 766.665 111.96 767.561 111.96C768.489 111.928 769.417 111.912 770.345 111.912C771.273 111.88 772.073 111.848 772.745 111.816V112.776C772.105 112.84 771.529 112.984 771.017 113.208C770.505 113.432 770.201 113.832 770.105 114.408C770.041 114.952 770.329 115.72 770.969 116.712L778.265 128.328L776.537 130.584L781.817 121.368C783.001 119.288 783.657 117.64 783.785 116.424C783.913 115.176 783.641 114.28 782.969 113.736C782.329 113.16 781.401 112.84 780.185 112.776V111.816C781.273 111.848 782.217 111.88 783.017 111.912C783.849 111.944 784.713 111.96 785.609 111.96C786.217 111.96 786.841 111.944 787.481 111.912C788.153 111.88 788.761 111.848 789.305 111.816ZM775.769 131.976L776.633 132.408L773.945 137.064C773.465 137.928 773.033 138.6 772.649 139.08C772.297 139.56 771.945 139.976 771.593 140.328C771.049 140.808 770.441 141.144 769.769 141.336C769.097 141.56 768.361 141.672 767.561 141.672C765.929 141.672 764.633 141.288 763.673 140.52C762.745 139.752 762.281 138.776 762.281 137.592C762.281 136.568 762.681 135.704 763.481 135C764.281 134.264 765.353 133.896 766.697 133.896C767.817 133.896 768.745 134.168 769.481 134.712C770.249 135.224 770.633 135.992 770.633 137.016C770.633 137.88 770.329 138.616 769.721 139.224C769.113 139.8 768.361 140.232 767.465 140.52C767.561 140.584 767.689 140.632 767.849 140.664C768.009 140.696 768.169 140.712 768.329 140.712C769.289 140.712 770.121 140.408 770.825 139.8C771.529 139.16 772.217 138.232 772.889 137.016L775.769 131.976Z" fill="#1E1E1E"/>
<path d="M85.652 6.472V8.792C83.2547 8.86933 81.3987 9.17866 80.084 9.72C78.8467 10.184 77.996 11.112 77.532 12.504C77.1453 13.8187 76.952 15.9067 76.952 18.768V64.704C76.952 67.488 77.1453 69.576 77.532 70.968C77.996 72.36 78.8467 73.288 80.084 73.752C81.3987 74.216 83.2547 74.5253 85.652 74.68V77C83.8733 76.8453 81.476 76.768 78.46 76.768C75.444 76.6907 72.196 76.652 68.716 76.652C65.3907 76.652 62.0653 76.6907 58.74 76.768C55.4147 76.768 52.6693 76.8453 50.504 77V74.68C52.9787 74.5253 54.8347 74.216 56.072 73.752C57.3093 73.288 58.1213 72.36 58.508 70.968C58.972 69.576 59.204 67.488 59.204 64.704V18.768C59.204 15.9067 58.972 13.78 58.508 12.388C58.1213 10.996 57.3093 10.068 56.072 9.604C54.8347 9.06267 52.9787 8.792 50.504 8.792H38.092C35.6947 8.792 33.8387 9.06267 32.524 9.604C31.2867 10.068 30.436 10.996 29.972 12.388C29.5853 13.78 29.392 15.9067 29.392 18.768V64.704C29.392 67.488 29.5853 69.576 29.972 70.968C30.436 72.36 31.2867 73.288 32.524 73.752C33.8387 74.216 35.6947 74.5253 38.092 74.68V77C35.9267 76.8453 33.1813 76.768 29.856 76.768C26.608 76.6907 23.2827 76.652 19.88 76.652C16.4773 76.652 13.268 76.6907 10.252 76.768C7.236 76.768 4.8 76.8453 2.944 77V74.68C5.41867 74.5253 7.27467 74.216 8.512 73.752C9.74933 73.288 10.5613 72.36 10.948 70.968C11.412 69.576 11.644 67.488 11.644 64.704V18.768C11.644 15.9067 11.412 13.8187 10.948 12.504C10.5613 11.112 9.74933 10.184 8.512 9.72C7.27467 9.17866 5.41867 8.86933 2.944 8.792V6.472C4.8 6.54933 7.236 6.62666 10.252 6.704C13.268 6.78133 16.4773 6.82 19.88 6.82C22.2773 6.82 24.7133 6.82 27.188 6.82C29.6627 6.74267 32.3307 6.66533 35.192 6.58799C38.0533 6.51066 41.108 6.472 44.356 6.472C47.6813 6.472 50.736 6.51066 53.52 6.58799C56.304 6.66533 58.9333 6.74267 61.408 6.82C63.96 6.82 66.396 6.82 68.716 6.82C72.196 6.82 75.444 6.78133 78.46 6.704C81.476 6.62666 83.8733 6.54933 85.652 6.472ZM90.089 6.472C91.8677 6.54933 94.1877 6.62666 97.049 6.704C99.9877 6.78133 102.849 6.82 105.633 6.82C109.732 6.82 113.637 6.78133 117.349 6.704C121.061 6.62666 123.69 6.58799 125.237 6.58799C135.6 6.58799 143.14 8.32799 147.857 11.808C152.652 15.2107 155.049 19.928 155.049 25.96C155.049 28.5893 154.508 31.2573 153.425 33.964C152.42 36.5933 150.68 39.0293 148.205 41.272C145.73 43.4373 142.328 45.1773 137.997 46.492C133.666 47.8067 128.176 48.464 121.525 48.464H111.549C111.549 48.464 111.549 48.0773 111.549 47.304C111.549 46.5307 111.549 46.144 111.549 46.144H120.365C124.85 46.144 128.214 45.2933 130.457 43.592C132.777 41.8133 134.362 39.4933 135.213 36.632C136.064 33.6933 136.489 30.5613 136.489 27.236C136.489 21.1267 135.522 16.5253 133.589 13.432C131.733 10.3387 128.446 8.792 123.729 8.792C120.79 8.792 118.857 9.44933 117.929 10.764C117.001 12.0787 116.537 14.7467 116.537 18.768V64.704C116.537 67.488 116.769 69.576 117.233 70.968C117.697 72.36 118.586 73.288 119.901 73.752C121.293 74.216 123.304 74.5253 125.933 74.68V77C123.69 76.8453 120.79 76.768 117.233 76.768C113.676 76.6907 110.041 76.652 106.329 76.652C103.081 76.652 99.9877 76.6907 97.049 76.768C94.1877 76.768 91.8677 76.8453 90.089 77V74.68C92.5637 74.5253 94.4197 74.216 95.657 73.752C96.8943 73.288 97.7063 72.36 98.093 70.968C98.557 69.576 98.789 67.488 98.789 64.704V18.768C98.789 15.9067 98.557 13.8187 98.093 12.504C97.7063 11.112 96.8943 10.184 95.657 9.72C94.4197 9.17866 92.5637 8.86933 90.089 8.792V6.472ZM192.558 6.472V8.792C190.16 8.86933 188.304 9.17866 186.99 9.72C185.752 10.184 184.902 11.112 184.438 12.504C184.051 13.8187 183.858 15.9067 183.858 18.768V64.704C183.858 67.488 184.051 69.576 184.438 70.968C184.902 72.36 185.752 73.288 186.99 73.752C188.304 74.216 190.16 74.5253 192.558 74.68V77C190.392 76.8453 187.647 76.768 184.322 76.768C181.074 76.6907 177.748 76.652 174.346 76.652C170.943 76.652 167.734 76.6907 164.718 76.768C161.702 76.768 159.266 76.8453 157.41 77V74.68C159.884 74.5253 161.74 74.216 162.978 73.752C164.215 73.288 165.027 72.36 165.414 70.968C165.878 69.576 166.11 67.488 166.11 64.704V18.768C166.11 15.9067 165.878 13.8187 165.414 12.504C165.027 11.112 164.215 10.184 162.978 9.72C161.74 9.17866 159.884 8.86933 157.41 8.792V6.472C159.266 6.54933 161.702 6.62666 164.718 6.704C167.734 6.78133 170.943 6.82 174.346 6.82C177.748 6.82 181.074 6.78133 184.322 6.704C187.647 6.62666 190.392 6.54933 192.558 6.472ZM221.326 9.83599C221.326 9.83599 221.287 10.2613 221.21 11.112C221.132 11.9627 221.055 12.8133 220.978 13.664C220.9 14.5147 220.862 14.94 220.862 14.94L179.334 73.752C179.334 73.752 179.372 73.3267 179.45 72.476C179.527 71.6253 179.604 70.8133 179.682 70.04C179.759 69.1893 179.798 68.764 179.798 68.764L221.326 9.83599ZM242.438 6.472V8.792C240.04 8.86933 238.184 9.17866 236.87 9.72C235.632 10.184 234.782 11.112 234.318 12.504C233.931 13.8187 233.738 15.9067 233.738 18.768V64.704C233.738 67.488 233.931 69.576 234.318 70.968C234.782 72.36 235.632 73.288 236.87 73.752C238.184 74.216 240.04 74.5253 242.438 74.68V77C240.659 76.8453 238.262 76.768 235.246 76.768C232.23 76.6907 228.982 76.652 225.502 76.652C222.176 76.652 218.851 76.6907 215.526 76.768C212.2 76.768 209.455 76.8453 207.29 77V74.68C209.764 74.5253 211.62 74.216 212.858 73.752C214.095 73.288 214.907 72.36 215.294 70.968C215.758 69.576 215.99 67.488 215.99 64.704V18.768C215.99 15.9067 215.758 13.8187 215.294 12.504C214.907 11.112 214.095 10.184 212.858 9.72C211.62 9.17866 209.764 8.86933 207.29 8.792V6.472C209.455 6.54933 212.2 6.62666 215.526 6.704C218.851 6.78133 222.176 6.82 225.502 6.82C229.059 6.82 232.423 6.74266 235.594 6.58799C238.842 6.43333 241.123 6.39466 242.438 6.472ZM303.544 6.472C303.235 9.79733 303.003 13.0453 302.848 16.216C302.771 19.3867 302.732 21.784 302.732 23.408C302.732 27.1973 302.848 30.368 303.08 32.92H300.412C299.639 27.0427 298.44 22.4027 296.816 19C295.192 15.52 293.104 13.0067 290.552 11.46C288 9.91333 284.868 9.14 281.156 9.14C280.924 9.14 280.731 9.14 280.576 9.14C280.422 9.14 280.228 9.14 279.996 9.14C278.295 9.14 276.942 9.33333 275.936 9.72C275.008 10.0293 274.312 10.7253 273.848 11.808C273.462 12.8907 273.268 14.5533 273.268 16.796V64.008C273.268 66.8693 273.616 69.0733 274.312 70.62C275.086 72.0893 276.362 73.0947 278.14 73.636C279.996 74.1773 282.51 74.5253 285.68 74.68V77C283.283 76.8453 280.228 76.768 276.516 76.768C272.804 76.6907 269.015 76.652 265.148 76.652C261.436 76.652 257.956 76.6907 254.708 76.768C251.46 76.768 248.831 76.8453 246.82 77V74.68C249.295 74.5253 251.151 74.216 252.388 73.752C253.626 73.288 254.438 72.36 254.824 70.968C255.288 69.576 255.52 67.488 255.52 64.704V18.768C255.52 15.9067 255.288 13.8187 254.824 12.504C254.438 11.112 253.626 10.184 252.388 9.72C251.151 9.17866 249.295 8.86933 246.82 8.792V6.472C249.527 6.54933 252.388 6.62666 255.404 6.704C258.42 6.78133 261.398 6.82 264.336 6.82C268.203 6.82 271.799 6.78133 275.124 6.704C278.45 6.62666 281.156 6.58799 283.244 6.58799C286.492 6.58799 289.856 6.58799 293.336 6.58799C296.894 6.58799 300.296 6.54933 303.544 6.472ZM372.149 6.472V8.792C369.752 8.86933 367.896 9.17866 366.581 9.72C365.344 10.184 364.493 11.112 364.029 12.504C363.643 13.8187 363.449 15.9067 363.449 18.768V64.704C363.449 67.488 363.643 69.576 364.029 70.968C364.493 72.36 365.344 73.288 366.581 73.752C367.896 74.216 369.752 74.5253 372.149 74.68V77C370.216 76.8453 367.664 76.768 364.493 76.768C361.323 76.6907 358.075 76.652 354.749 76.652C351.424 76.652 348.137 76.6907 344.889 76.768C341.641 76.768 339.012 76.8453 337.001 77V74.68C339.476 74.5253 341.332 74.216 342.569 73.752C343.807 73.288 344.619 72.36 345.005 70.968C345.469 69.576 345.701 67.488 345.701 64.704V18.768C345.701 15.9067 345.508 13.78 345.121 12.388C344.812 10.9187 344.155 9.952 343.149 9.488C342.221 9.024 340.791 8.792 338.857 8.792H337.349C335.416 8.792 333.985 9.024 333.057 9.488C332.207 9.952 331.627 10.9187 331.317 12.388C331.008 13.78 330.737 15.9067 330.505 18.768C330.041 23.5627 329.616 28.7053 329.229 34.196C328.843 39.6093 328.224 44.9453 327.373 50.204C326.6 55.4627 325.44 60.2187 323.893 64.472C322.424 68.7253 320.375 72.1667 317.745 74.796C315.116 77.348 311.752 78.624 307.653 78.624C305.411 78.624 303.323 78.16 301.389 77.232C299.456 76.3813 297.909 75.144 296.749 73.52C295.589 71.896 295.009 69.9627 295.009 67.72C295.009 64.7813 296.015 62.4227 298.025 60.644C300.113 58.8653 302.665 57.976 305.681 57.976C308.156 57.976 310.167 58.5947 311.713 59.832C313.26 61.0693 314.033 62.9253 314.033 65.4C314.033 67.952 313.144 70.156 311.365 72.012C309.664 73.868 307.499 75.144 304.869 75.84C305.256 76.072 305.681 76.2267 306.145 76.304C306.687 76.3813 307.305 76.42 308.001 76.42C311.249 76.42 313.956 75.26 316.121 72.94C318.364 70.62 320.181 67.488 321.573 63.544C322.965 59.6 324.048 55.1533 324.821 50.204C325.595 45.1773 326.213 39.996 326.677 34.66C327.141 29.2467 327.528 23.9493 327.837 18.768C328.069 16.0613 327.953 14.012 327.489 12.62C327.103 11.228 326.213 10.2613 324.821 9.72C323.429 9.17866 321.303 8.86933 318.441 8.792V6.472C319.988 6.54933 321.805 6.62666 323.893 6.704C325.981 6.704 327.837 6.704 329.461 6.704C330.699 6.704 331.627 6.704 332.245 6.704C332.941 6.62666 333.753 6.58799 334.681 6.58799C335.687 6.51066 337.156 6.472 339.089 6.472C341.255 6.472 343.149 6.51066 344.773 6.58799C346.475 6.66533 348.176 6.74267 349.877 6.82C351.579 6.82 353.667 6.82 356.141 6.82C357.611 6.82 359.312 6.82 361.245 6.82C363.256 6.74267 365.228 6.704 367.161 6.704C369.172 6.62666 370.835 6.54933 372.149 6.472ZM411.391 6.24L438.999 67.256C440.314 69.9627 441.551 71.8573 442.711 72.94C443.948 74.0227 445.147 74.6027 446.307 74.68V77C444.528 76.8453 442.247 76.768 439.463 76.768C436.679 76.6907 433.895 76.652 431.111 76.652C427.399 76.652 423.88 76.6907 420.555 76.768C417.307 76.768 414.716 76.8453 412.783 77V74.68C416.263 74.5253 418.544 73.7907 419.627 72.476C420.787 71.1613 420.516 68.648 418.815 64.936L400.371 22.828L402.691 19.812L387.263 54.844C385.562 58.6333 384.518 61.804 384.131 64.356C383.744 66.8307 383.899 68.8027 384.595 70.272C385.291 71.7413 386.451 72.824 388.075 73.52C389.699 74.1387 391.71 74.5253 394.107 74.68V77C391.864 76.8453 389.66 76.768 387.495 76.768C385.407 76.6907 383.164 76.652 380.767 76.652C379.298 76.652 377.635 76.6907 375.779 76.768C373.923 76.768 372.454 76.8453 371.371 77V74.68C373.304 74.216 375.044 73.0173 376.591 71.084C378.138 69.0733 379.8 66.1347 381.579 62.268L406.055 6.24C406.983 6.31733 407.872 6.356 408.723 6.356C409.651 6.356 410.54 6.31733 411.391 6.24ZM419.859 49.392V51.712H387.611L388.771 49.392H419.859ZM563.229 6.472V8.792C560.755 8.86933 558.899 9.17866 557.661 9.72C556.424 10.184 555.573 11.112 555.109 12.504C554.723 13.8187 554.529 15.9067 554.529 18.768V64.704C554.529 67.488 554.723 69.576 555.109 70.968C555.573 72.36 556.424 73.288 557.661 73.752C558.899 74.216 560.755 74.5253 563.229 74.68V77C561.451 76.8453 559.053 76.768 556.037 76.768C553.021 76.6907 549.773 76.652 546.293 76.652C542.581 76.652 538.831 76.7293 535.041 76.884C531.252 76.9613 527.927 77 525.065 77C523.287 77 521.237 76.9613 518.917 76.884C516.675 76.8067 514.355 76.768 511.957 76.768C509.56 76.6907 507.317 76.652 505.229 76.652C501.827 76.652 498.231 76.7293 494.441 76.884C490.729 76.9613 487.327 77 484.233 77C481.449 77 478.201 76.9613 474.489 76.884C470.777 76.7293 467.104 76.652 463.469 76.652C459.912 76.652 456.548 76.6907 453.377 76.768C450.284 76.768 447.771 76.8453 445.837 77V74.68C448.312 74.5253 450.168 74.216 451.405 73.752C452.643 73.288 453.455 72.36 453.841 70.968C454.305 69.576 454.537 67.488 454.537 64.704V18.768C454.537 15.9067 454.305 13.8187 453.841 12.504C453.455 11.112 452.643 10.184 451.405 9.72C450.168 9.17866 448.312 8.86933 445.837 8.792V6.472C447.848 6.54933 450.477 6.62666 453.725 6.704C456.973 6.78133 460.453 6.82 464.165 6.82C467.027 6.82 469.888 6.78133 472.749 6.704C475.611 6.62666 477.969 6.54933 479.825 6.472V8.792C477.737 8.86933 476.152 9.17866 475.069 9.72C473.987 10.184 473.252 11.112 472.865 12.504C472.479 13.8187 472.285 15.9067 472.285 18.768V64.704C472.285 67.488 472.517 69.6147 472.981 71.084C473.445 72.476 474.335 73.4427 475.649 73.984C477.041 74.448 479.052 74.68 481.681 74.68H486.321C488.951 74.68 490.923 74.448 492.237 73.984C493.629 73.4427 494.557 72.476 495.021 71.084C495.485 69.6147 495.717 67.488 495.717 64.704V18.768C495.717 15.9067 495.524 13.8187 495.137 12.504C494.751 11.112 494.016 10.184 492.933 9.72C491.928 9.17866 490.343 8.86933 488.177 8.792V6.472C490.111 6.54933 492.547 6.62666 495.485 6.704C498.501 6.78133 501.517 6.82 504.533 6.82C507.859 6.82 510.991 6.78133 513.929 6.704C516.868 6.62666 519.227 6.54933 521.005 6.472V8.792C518.84 8.86933 517.216 9.17866 516.133 9.72C515.051 10.184 514.316 11.112 513.929 12.504C513.62 13.8187 513.465 15.9067 513.465 18.768V64.704C513.465 67.488 513.736 69.6147 514.277 71.084C514.819 72.476 515.747 73.4427 517.061 73.984C518.453 74.448 520.387 74.68 522.861 74.68H527.385C530.015 74.68 531.987 74.448 533.301 73.984C534.693 73.4427 535.621 72.476 536.085 71.084C536.549 69.6147 536.781 67.488 536.781 64.704V18.768C536.781 15.9067 536.588 13.8187 536.201 12.504C535.892 11.112 535.196 10.184 534.113 9.72C533.031 9.17866 531.407 8.86933 529.241 8.792V6.472C531.252 6.54933 533.727 6.62666 536.665 6.704C539.681 6.78133 542.659 6.82 545.597 6.82C549.155 6.82 552.48 6.78133 555.573 6.704C558.744 6.62666 561.296 6.54933 563.229 6.472ZM626.691 6.472C626.381 9.17866 626.149 11.8467 625.995 14.476C625.917 17.028 625.879 19 625.879 20.392C625.879 21.784 625.917 23.1373 625.995 24.452C626.072 25.6893 626.149 26.7333 626.227 27.584H623.559C622.399 20.7013 620.349 15.9067 617.411 13.2C614.472 10.4933 610.567 9.14 605.695 9.14H601.403C599.547 9.14 598.077 9.33333 596.995 9.72C595.989 10.0293 595.255 10.7253 594.791 11.808C594.327 12.8133 594.095 14.4373 594.095 16.68V66.792C594.095 68.9573 594.327 70.5813 594.791 71.664C595.255 72.7467 595.989 73.4813 596.995 73.868C598.077 74.1773 599.547 74.332 601.403 74.332H606.391C609.948 74.332 613.041 73.6747 615.671 72.36C618.3 71.0453 620.465 68.88 622.167 65.864C623.868 62.7707 625.105 58.672 625.879 53.568H628.547C628.315 55.7333 628.199 58.5173 628.199 61.92C628.199 63.3893 628.237 65.5547 628.315 68.416C628.469 71.2 628.701 74.0613 629.011 77C625.221 76.8453 620.968 76.768 616.251 76.768C611.533 76.6907 607.319 76.652 603.607 76.652C601.132 76.652 597.807 76.652 593.631 76.652C589.532 76.652 585.163 76.6907 580.523 76.768C575.96 76.768 571.668 76.8453 567.647 77V74.68C570.121 74.5253 571.977 74.216 573.215 73.752C574.452 73.288 575.264 72.36 575.651 70.968C576.115 69.576 576.347 67.488 576.347 64.704V18.768C576.347 15.9067 576.115 13.8187 575.651 12.504C575.264 11.112 574.452 10.184 573.215 9.72C571.977 9.17866 570.121 8.86933 567.647 8.792V6.472C571.668 6.54933 575.96 6.62666 580.523 6.704C585.163 6.78133 589.532 6.82 593.631 6.82C597.807 6.82 601.132 6.82 603.607 6.82C607.009 6.82 610.837 6.82 615.091 6.82C619.421 6.74267 623.288 6.62666 626.691 6.472ZM609.175 40.344C609.175 40.344 609.175 40.7307 609.175 41.504C609.175 42.2773 609.175 42.664 609.175 42.664H590.615C590.615 42.664 590.615 42.2773 590.615 41.504C590.615 40.7307 590.615 40.344 590.615 40.344H609.175ZM613.931 27.816C613.621 31.3733 613.467 34.1573 613.467 36.168C613.544 38.1787 613.583 39.9573 613.583 41.504C613.583 43.0507 613.621 44.8293 613.699 46.84C613.776 48.8507 613.969 51.6347 614.279 55.192H611.611C611.379 53.0267 610.799 51.016 609.871 49.16C609.02 47.2267 607.744 45.68 606.043 44.52C604.419 43.2827 602.253 42.664 599.547 42.664V40.344C602.331 40.344 604.496 39.648 606.043 38.256C607.667 36.7867 608.865 35.0853 609.639 33.152C610.489 31.2187 611.031 29.44 611.263 27.816H613.931ZM717.562 6.472V8.792C715.165 8.86933 713.309 9.17866 711.994 9.72C710.757 10.184 709.906 11.112 709.442 12.504C709.055 13.8187 708.862 15.9067 708.862 18.768V64.704C708.862 67.488 709.055 69.576 709.442 70.968C709.906 72.36 710.757 73.288 711.994 73.752C713.309 74.216 715.165 74.5253 717.562 74.68V77C715.783 76.8453 713.386 76.768 710.37 76.768C707.354 76.6907 704.106 76.652 700.626 76.652C697.301 76.652 693.975 76.6907 690.65 76.768C687.325 76.768 684.579 76.8453 682.414 77V74.68C684.889 74.5253 686.745 74.216 687.982 73.752C689.219 73.288 690.031 72.36 690.418 70.968C690.882 69.576 691.114 67.488 691.114 64.704V42.2H661.302V64.704C661.302 67.488 661.495 69.576 661.882 70.968C662.346 72.36 663.197 73.288 664.434 73.752C665.749 74.216 667.605 74.5253 670.002 74.68V77C667.837 76.8453 665.091 76.768 661.766 76.768C658.518 76.6907 655.193 76.652 651.79 76.652C648.387 76.652 645.178 76.6907 642.162 76.768C639.146 76.768 636.71 76.8453 634.854 77V74.68C637.329 74.5253 639.185 74.216 640.422 73.752C641.659 73.288 642.471 72.36 642.858 70.968C643.322 69.576 643.554 67.488 643.554 64.704V18.768C643.554 15.9067 643.322 13.8187 642.858 12.504C642.471 11.112 641.659 10.184 640.422 9.72C639.185 9.17866 637.329 8.86933 634.854 8.792V6.472C636.71 6.54933 639.146 6.62666 642.162 6.704C645.178 6.78133 648.387 6.82 651.79 6.82C655.193 6.82 658.518 6.78133 661.766 6.704C665.091 6.62666 667.837 6.54933 670.002 6.472V8.792C667.605 8.86933 665.749 9.17866 664.434 9.72C663.197 10.184 662.346 11.112 661.882 12.504C661.495 13.8187 661.302 15.9067 661.302 18.768V39.88H691.114V18.768C691.114 15.9067 690.882 13.8187 690.418 12.504C690.031 11.112 689.219 10.184 687.982 9.72C686.745 9.17866 684.889 8.86933 682.414 8.792V6.472C684.579 6.54933 687.325 6.62666 690.65 6.704C693.975 6.78133 697.301 6.82 700.626 6.82C704.106 6.82 707.354 6.78133 710.37 6.704C713.386 6.62666 715.783 6.54933 717.562 6.472ZM757.147 6.472V8.792C754.75 8.86933 752.894 9.17866 751.579 9.72C750.342 10.184 749.491 11.112 749.027 12.504C748.64 13.8187 748.447 15.9067 748.447 18.768V64.704C748.447 67.488 748.64 69.576 749.027 70.968C749.491 72.36 750.342 73.288 751.579 73.752C752.894 74.216 754.75 74.5253 757.147 74.68V77C754.982 76.8453 752.236 76.768 748.911 76.768C745.663 76.6907 742.338 76.652 738.935 76.652C735.532 76.652 732.323 76.6907 729.307 76.768C726.291 76.768 723.855 76.8453 721.999 77V74.68C724.474 74.5253 726.33 74.216 727.567 73.752C728.804 73.288 729.616 72.36 730.003 70.968C730.467 69.576 730.699 67.488 730.699 64.704V18.768C730.699 15.9067 730.467 13.8187 730.003 12.504C729.616 11.112 728.804 10.184 727.567 9.72C726.33 9.17866 724.474 8.86933 721.999 8.792V6.472C723.855 6.54933 726.291 6.62666 729.307 6.704C732.323 6.78133 735.532 6.82 738.935 6.82C742.338 6.82 745.663 6.78133 748.911 6.704C752.236 6.62666 754.982 6.54933 757.147 6.472ZM785.915 9.83599C785.915 9.83599 785.876 10.2613 785.799 11.112C785.722 11.9627 785.644 12.8133 785.567 13.664C785.49 14.5147 785.451 14.94 785.451 14.94L743.923 73.752C743.923 73.752 743.962 73.3267 744.039 72.476C744.116 71.6253 744.194 70.8133 744.271 70.04C744.348 69.1893 744.387 68.764 744.387 68.764L785.915 9.83599ZM807.027 6.472V8.792C804.63 8.86933 802.774 9.17866 801.459 9.72C800.222 10.184 799.371 11.112 798.907 12.504C798.52 13.8187 798.327 15.9067 798.327 18.768V64.704C798.327 67.488 798.52 69.576 798.907 70.968C799.371 72.36 800.222 73.288 801.459 73.752C802.774 74.216 804.63 74.5253 807.027 74.68V77C805.248 76.8453 802.851 76.768 799.835 76.768C796.819 76.6907 793.571 76.652 790.091 76.652C786.766 76.652 783.44 76.6907 780.115 76.768C776.79 76.768 774.044 76.8453 771.879 77V74.68C774.354 74.5253 776.21 74.216 777.447 73.752C778.684 73.288 779.496 72.36 779.883 70.968C780.347 69.576 780.579 67.488 780.579 64.704V18.768C780.579 15.9067 780.347 13.8187 779.883 12.504C779.496 11.112 778.684 10.184 777.447 9.72C776.21 9.17866 774.354 8.86933 771.879 8.792V6.472C774.044 6.54933 776.79 6.62666 780.115 6.704C783.44 6.78133 786.766 6.82 790.091 6.82C793.648 6.82 797.012 6.74266 800.183 6.58799C803.431 6.43333 805.712 6.39466 807.027 6.472ZM870.454 6.472C870.144 9.17866 869.912 11.8467 869.758 14.476C869.68 17.028 869.642 19 869.642 20.392C869.642 21.784 869.68 23.1373 869.758 24.452C869.835 25.6893 869.912 26.7333 869.99 27.584H867.322C866.162 20.7013 864.112 15.9067 861.174 13.2C858.235 10.4933 854.33 9.14 849.458 9.14H845.166C843.31 9.14 841.84 9.33333 840.758 9.72C839.752 10.0293 839.018 10.7253 838.554 11.808C838.09 12.8133 837.858 14.4373 837.858 16.68V66.792C837.858 68.9573 838.09 70.5813 838.554 71.664C839.018 72.7467 839.752 73.4813 840.758 73.868C841.84 74.1773 843.31 74.332 845.166 74.332H850.154C853.711 74.332 856.804 73.6747 859.434 72.36C862.063 71.0453 864.228 68.88 865.93 65.864C867.631 62.7707 868.868 58.672 869.642 53.568H872.31C872.078 55.7333 871.962 58.5173 871.962 61.92C871.962 63.3893 872 65.5547 872.078 68.416C872.232 71.2 872.464 74.0613 872.774 77C868.984 76.8453 864.731 76.768 860.014 76.768C855.296 76.6907 851.082 76.652 847.37 76.652C844.895 76.652 841.57 76.652 837.394 76.652C833.295 76.652 828.926 76.6907 824.286 76.768C819.723 76.768 815.431 76.8453 811.41 77V74.68C813.884 74.5253 815.74 74.216 816.978 73.752C818.215 73.288 819.027 72.36 819.414 70.968C819.878 69.576 820.11 67.488 820.11 64.704V18.768C820.11 15.9067 819.878 13.8187 819.414 12.504C819.027 11.112 818.215 10.184 816.978 9.72C815.74 9.17866 813.884 8.86933 811.41 8.792V6.472C815.431 6.54933 819.723 6.62666 824.286 6.704C828.926 6.78133 833.295 6.82 837.394 6.82C841.57 6.82 844.895 6.82 847.37 6.82C850.772 6.82 854.6 6.82 858.854 6.82C863.184 6.74267 867.051 6.62666 870.454 6.472ZM852.938 40.344C852.938 40.344 852.938 40.7307 852.938 41.504C852.938 42.2773 852.938 42.664 852.938 42.664H834.378C834.378 42.664 834.378 42.2773 834.378 41.504C834.378 40.7307 834.378 40.344 834.378 40.344H852.938ZM857.694 27.816C857.384 31.3733 857.23 34.1573 857.23 36.168C857.307 38.1787 857.346 39.9573 857.346 41.504C857.346 43.0507 857.384 44.8293 857.462 46.84C857.539 48.8507 857.732 51.6347 858.042 55.192H855.374C855.142 53.0267 854.562 51.016 853.634 49.16C852.783 47.2267 851.507 45.68 849.806 44.52C848.182 43.2827 846.016 42.664 843.31 42.664V40.344C846.094 40.344 848.259 39.648 849.806 38.256C851.43 36.7867 852.628 35.0853 853.402 33.152C854.252 31.2187 854.794 29.44 855.026 27.816H857.694Z" fill="#1E1E1E"/>
</g>
</svg>
