<svg width="411" height="226" viewBox="0 0 411 226" fill="none" xmlns="http://www.w3.org/2000/svg">
<mask id="mask0_28_21" style="mask-type:alpha" maskUnits="userSpaceOnUse" x="0" y="0" width="411" height="226">
<rect width="411" height="226" fill="#2A2A2A"/>
</mask>
<g mask="url(#mask0_28_21)">
<path d="M90.704 4.872V7.192C88.2293 7.26933 86.3733 7.57866 85.136 8.12C83.8987 8.584 83.048 9.512 82.584 10.904C82.1973 12.2187 82.004 14.3067 82.004 17.168V74.704C82.004 77.488 82.1973 79.576 82.584 80.968C83.048 82.36 83.8987 83.288 85.136 83.752C86.3733 84.216 88.2293 84.5253 90.704 84.68V87C88.5387 86.8453 85.7933 86.768 82.468 86.768C79.22 86.6907 75.8947 86.652 72.492 86.652C68.78 86.652 65.3 86.6907 62.052 86.768C58.804 86.768 56.1747 86.8453 54.164 87V84.68C56.7933 84.5253 58.7653 84.216 60.08 83.752C61.472 83.288 62.4 82.36 62.864 80.968C63.328 79.576 63.56 77.488 63.56 74.704V11.948H64.372L35.604 87.116H33.748L2.428 12.412V67.976C2.428 72.2293 2.66 75.516 3.124 77.836C3.588 80.0787 4.59333 81.7027 6.14 82.708C7.764 83.636 10.2773 84.2933 13.68 84.68V87C12.2107 86.8453 10.2773 86.768 7.88 86.768C5.48267 86.6907 3.24 86.652 1.152 86.652C-0.626666 86.652 -2.444 86.6907 -4.3 86.768C-6.156 86.768 -7.70267 86.8453 -8.94 87V84.68C-6.46533 84.2933 -4.60933 83.636 -3.372 82.708C-2.13467 81.78 -1.32267 80.272 -0.936 78.184C-0.471999 76.0187 -0.239999 73.08 -0.239999 69.368V17.168C-0.239999 14.3067 -0.471999 12.2187 -0.936 10.904C-1.32267 9.512 -2.17333 8.584 -3.488 8.12C-4.72533 7.57866 -6.54267 7.26933 -8.94 7.192V4.872C-7.70267 4.94933 -6.156 5.02666 -4.3 5.104C-2.444 5.18133 -0.626666 5.22 1.152 5.22C4.47733 5.22 7.72533 5.18133 10.896 5.104C14.144 5.02666 17.0053 4.94933 19.48 4.872L43.84 63.684L40.94 66.352L64.256 5.22C65.5707 5.22 66.924 5.22 68.316 5.22C69.708 5.22 71.1 5.22 72.492 5.22C75.8947 5.22 79.22 5.18133 82.468 5.104C85.7933 5.02666 88.5387 4.94933 90.704 4.872ZM157.028 4.872C156.719 8.27466 156.487 11.5613 156.332 14.732C156.255 17.9027 156.216 20.3387 156.216 22.04C156.216 23.5867 156.255 25.056 156.332 26.448C156.409 27.84 156.487 29 156.564 29.928H153.896C153.123 24.2827 151.924 19.836 150.3 16.588C148.676 13.2627 146.549 10.9427 143.92 9.62799C141.368 8.23599 138.352 7.53999 134.872 7.53999H130.116C127.873 7.53999 126.172 7.73333 125.012 8.12C123.852 8.50667 123.079 9.28 122.692 10.44C122.305 11.6 122.112 13.3787 122.112 15.776V76.096C122.112 78.4933 122.305 80.272 122.692 81.432C123.079 82.592 123.852 83.3653 125.012 83.752C126.172 84.1387 127.873 84.332 130.116 84.332H135.8C139.28 84.332 142.335 83.5973 144.964 82.128C147.671 80.5813 149.952 77.9907 151.808 74.356C153.741 70.7213 155.211 65.8107 156.216 59.624H158.884C158.652 62.0987 158.536 65.3467 158.536 69.368C158.536 71.1467 158.575 73.66 158.652 76.908C158.729 80.156 158.961 83.52 159.348 87C155.404 86.8453 150.957 86.768 146.008 86.768C141.059 86.6907 136.651 86.652 132.784 86.652C130.851 86.652 128.376 86.652 125.36 86.652C122.344 86.652 119.096 86.6907 115.616 86.768C112.136 86.768 108.617 86.8067 105.06 86.884C101.503 86.884 98.1386 86.9227 94.9679 87V84.68C97.4426 84.5253 99.2986 84.216 100.536 83.752C101.773 83.288 102.585 82.36 102.972 80.968C103.436 79.576 103.668 77.488 103.668 74.704V17.168C103.668 14.3067 103.436 12.2187 102.972 10.904C102.585 9.512 101.735 8.584 100.42 8.12C99.1826 7.57866 97.3652 7.26933 94.9679 7.192V4.872C98.1386 4.94933 101.503 5.02666 105.06 5.104C108.617 5.104 112.136 5.14266 115.616 5.22C119.096 5.22 122.344 5.22 125.36 5.22C128.376 5.22 130.851 5.22 132.784 5.22C136.341 5.22 140.363 5.22 144.848 5.22C149.411 5.14266 153.471 5.02666 157.028 4.872ZM138.932 44.544C138.932 44.544 138.932 44.9307 138.932 45.704C138.932 46.4773 138.932 46.864 138.932 46.864H118.632C118.632 46.864 118.632 46.4773 118.632 45.704C118.632 44.9307 118.632 44.544 118.632 44.544H138.932ZM142.296 29.232C141.987 33.64 141.832 37.004 141.832 39.324C141.909 41.644 141.948 43.7707 141.948 45.704C141.948 47.6373 141.987 49.764 142.064 52.084C142.141 54.404 142.335 57.768 142.644 62.176H139.976C139.589 59.4693 138.855 56.956 137.772 54.636C136.767 52.316 135.297 50.46 133.364 49.068C131.431 47.5987 128.917 46.864 125.824 46.864V44.544C128.144 44.544 130.116 44.08 131.74 43.152C133.364 42.1467 134.679 40.8707 135.684 39.324C136.767 37.7 137.617 35.9987 138.236 34.22C138.855 32.4413 139.319 30.7787 139.628 29.232H142.296ZM207.115 3.24799C212.219 3.24799 216.395 4.02133 219.643 5.568C222.969 7.03733 225.907 8.77733 228.459 10.788C230.006 11.948 231.166 12.1027 231.939 11.252C232.79 10.324 233.37 8.19733 233.679 4.872H236.347C236.193 7.888 236.077 11.5613 235.999 15.892C235.922 20.1453 235.883 25.8293 235.883 32.944H233.215C232.829 29.3867 232.326 26.3707 231.707 23.896C231.089 21.344 230.238 19.1013 229.155 17.168C228.073 15.2347 226.526 13.4947 224.515 11.948C222.582 10.0147 220.339 8.584 217.787 7.656C215.235 6.728 212.567 6.264 209.783 6.264C205.607 6.264 202.05 7.38533 199.111 9.62799C196.173 11.7933 193.775 14.7707 191.919 18.56C190.141 22.3493 188.826 26.6413 187.975 31.436C187.125 36.1533 186.699 41.064 186.699 46.168C186.699 51.3493 187.125 56.3373 187.975 61.132C188.903 65.8493 190.295 70.064 192.151 73.776C194.085 77.488 196.559 80.4267 199.575 82.592C202.591 84.7573 206.149 85.84 210.247 85.84C212.799 85.84 215.351 85.376 217.903 84.448C220.533 83.4427 222.775 82.012 224.631 80.156C227.647 77.836 229.697 74.9747 230.779 71.572C231.862 68.092 232.674 63.4907 233.215 57.768H235.883C235.883 65.1147 235.922 71.0693 235.999 75.632C236.077 80.1173 236.193 83.9067 236.347 87H233.679C233.37 83.6747 232.829 81.5867 232.055 80.736C231.359 79.8853 230.161 80.0013 228.459 81.084C225.598 83.0947 222.543 84.8733 219.295 86.42C216.125 87.8893 212.026 88.624 206.999 88.624C198.802 88.624 191.61 86.9613 185.423 83.636C179.314 80.3107 174.558 75.516 171.155 69.252C167.753 62.988 166.051 55.448 166.051 46.632C166.051 37.9707 167.791 30.392 171.271 23.896C174.829 17.4 179.662 12.3347 185.771 8.7C191.958 5.06533 199.073 3.24799 207.115 3.24799ZM313.844 4.872C313.535 8.816 313.303 12.6053 313.149 16.24C313.071 19.8747 313.033 22.6587 313.033 24.592C313.033 26.2933 313.071 27.9173 313.149 29.464C313.226 31.0107 313.303 32.3253 313.38 33.408H310.712C309.475 26.912 307.89 21.7693 305.956 17.98C304.1 14.1907 301.858 11.5227 299.229 9.976C296.599 8.35199 293.506 7.53999 289.948 7.53999H287.28V73.776C287.28 76.8693 287.59 79.1893 288.209 80.736C288.904 82.2827 290.142 83.3267 291.92 83.868C293.699 84.332 296.29 84.6027 299.693 84.68V87C297.295 86.9227 294.086 86.8453 290.064 86.768C286.12 86.6907 281.983 86.652 277.652 86.652C273.399 86.652 269.378 86.6907 265.588 86.768C261.799 86.8453 258.744 86.9227 256.424 87V84.68C259.904 84.6027 262.534 84.332 264.312 83.868C266.091 83.3267 267.29 82.2827 267.908 80.736C268.527 79.1893 268.836 76.8693 268.836 73.776V7.53999H266.284C262.727 7.53999 259.634 8.35199 257.004 9.976C254.375 11.5227 252.132 14.1907 250.276 17.98C248.42 21.692 246.796 26.8347 245.404 33.408H242.736C242.891 32.3253 242.968 31.0107 242.968 29.464C243.046 27.9173 243.084 26.2933 243.084 24.592C243.084 22.6587 243.007 19.8747 242.852 16.24C242.775 12.6053 242.582 8.816 242.272 4.872C245.83 4.94933 249.696 5.02666 253.872 5.104C258.126 5.18133 262.379 5.22 266.632 5.22C270.886 5.22 274.714 5.22 278.117 5.22C281.596 5.22 285.424 5.22 289.601 5.22C293.854 5.22 298.107 5.18133 302.361 5.104C306.614 5.02666 310.442 4.94933 313.844 4.872ZM359.429 3.24799C367.626 3.24799 374.78 4.91066 380.889 8.236C387.076 11.5613 391.87 16.356 395.273 22.62C398.676 28.8067 400.377 36.3467 400.377 45.24C400.377 53.9013 398.637 61.48 395.157 67.976C391.677 74.472 386.805 79.5373 380.541 83.172C374.354 86.8067 367.278 88.624 359.313 88.624C351.116 88.624 343.924 86.9613 337.737 83.636C331.628 80.3107 326.872 75.516 323.469 69.252C320.066 62.988 318.365 55.448 318.365 46.632C318.365 37.9707 320.105 30.392 323.585 23.896C327.142 17.4 331.976 12.3347 338.085 8.7C344.272 5.06533 351.386 3.24799 359.429 3.24799ZM358.965 5.33599C354.634 5.33599 350.845 7.07599 347.597 10.556C344.426 14.036 341.952 18.8307 340.173 24.94C338.472 31.0493 337.621 38.1253 337.621 46.168C337.621 54.3653 338.588 61.5187 340.521 67.628C342.532 73.66 345.2 78.3387 348.525 81.664C351.928 84.912 355.678 86.536 359.777 86.536C364.108 86.536 367.858 84.796 371.029 81.316C374.277 77.836 376.752 73.0413 378.453 66.932C380.232 60.7453 381.121 53.6693 381.121 45.704C381.121 37.4293 380.116 30.276 378.105 24.244C376.172 18.212 373.504 13.572 370.101 10.324C366.776 6.99866 363.064 5.33599 358.965 5.33599ZM26.788 124.872V127.192C24.3133 127.269 22.4573 127.579 21.22 128.12C19.9827 128.584 19.132 129.512 18.668 130.904C18.2813 132.219 18.088 134.307 18.088 137.168V194.704C18.088 197.488 18.2813 199.576 18.668 200.968C19.132 202.36 19.9827 203.288 21.22 203.752C22.4573 204.216 24.3133 204.525 26.788 204.68V207C24.7 206.845 22.0707 206.768 18.9 206.768C15.7293 206.691 12.52 206.652 9.272 206.652C5.48267 206.652 1.964 206.691 -1.284 206.768C-4.45467 206.768 -7.04533 206.845 -9.056 207V204.68C-6.65867 204.525 -4.84133 204.216 -3.604 203.752C-2.28933 203.288 -1.43867 202.36 -1.052 200.968C-0.587999 199.576 -0.355999 197.488 -0.355999 194.704V137.168C-0.355999 134.307 -0.587999 132.219 -1.052 130.904C-1.43867 129.512 -2.28933 128.584 -3.604 128.12C-4.84133 127.579 -6.65867 127.269 -9.056 127.192V124.872C-7.04533 124.949 -4.45467 125.027 -1.284 125.104C1.964 125.181 5.48267 125.22 9.272 125.22C12.52 125.22 15.7293 125.181 18.9 125.104C22.0707 125.027 24.7 124.949 26.788 124.872ZM53.468 131.252C53.468 131.252 53.468 131.677 53.468 132.528C53.468 133.301 53.468 134.113 53.468 134.964C53.5453 135.815 53.584 136.24 53.584 136.24L14.84 201.78L13.796 198.532L53.468 131.252ZM78.292 124.872V127.192C75.8173 127.269 73.9613 127.579 72.724 128.12C71.4867 128.584 70.636 129.512 70.172 130.904C69.7853 132.219 69.592 134.307 69.592 137.168V194.704C69.592 197.488 69.7853 199.576 70.172 200.968C70.636 202.36 71.4867 203.288 72.724 203.752C73.9613 204.216 75.8173 204.525 78.292 204.68V207C76.2813 206.845 73.652 206.768 70.404 206.768C67.156 206.691 63.676 206.652 59.964 206.652C56.716 206.652 53.468 206.691 50.22 206.768C47.0493 206.768 44.4587 206.845 42.448 207V204.68C44.8453 204.525 46.6627 204.216 47.9 203.752C49.1373 203.288 49.988 202.36 50.452 200.968C50.916 199.576 51.148 197.488 51.148 194.704V137.168C51.148 134.307 50.916 132.219 50.452 130.904C49.988 129.512 49.1373 128.584 47.9 128.12C46.6627 127.579 44.8453 127.269 42.448 127.192V124.872C44.4587 124.949 47.0493 125.027 50.22 125.104C53.468 125.181 56.716 125.22 59.964 125.22C63.676 125.22 67.156 125.181 70.404 125.104C73.652 125.027 76.2813 124.949 78.292 124.872ZM173.494 124.872V127.192C170.865 127.269 168.854 127.579 167.462 128.12C166.148 128.584 165.258 129.512 164.794 130.904C164.33 132.219 164.098 134.307 164.098 137.168V194.704C164.098 197.488 164.292 199.615 164.678 201.084C165.142 202.476 165.993 203.443 167.23 203.984C168.468 204.448 170.324 204.68 172.798 204.68H176.278C175.969 207.696 175.737 210.596 175.582 213.38C175.505 216.164 175.466 218.291 175.466 219.76C175.466 221.307 175.505 222.699 175.582 223.936C175.66 225.251 175.737 226.372 175.814 227.3H173.146C172.373 222.196 171.136 218.136 169.434 215.12C167.733 212.181 165.529 210.093 162.822 208.856C160.193 207.619 157.061 207 153.426 207H125.354C121.72 207 118.549 207.619 115.842 208.856C113.213 210.093 111.048 212.181 109.346 215.12C107.645 218.136 106.408 222.196 105.634 227.3H102.966C103.121 226.372 103.198 225.251 103.198 223.936C103.276 222.699 103.314 221.307 103.314 219.76C103.314 218.291 103.237 216.164 103.082 213.38C103.005 210.596 102.812 207.696 102.502 204.68H136.258C138.888 204.68 140.86 204.448 142.174 203.984C143.566 203.443 144.494 202.476 144.958 201.084C145.422 199.615 145.654 197.488 145.654 194.704V137.168C145.654 134.307 145.384 132.18 144.842 130.788C144.378 129.396 143.528 128.468 142.29 128.004C141.13 127.463 139.584 127.192 137.65 127.192H136.142C134.518 127.192 133.204 127.463 132.198 128.004C131.193 128.468 130.42 129.435 129.878 130.904C129.414 132.296 129.066 134.384 128.834 137.168C128.448 141.576 128.061 146.332 127.674 151.436C127.365 156.54 126.94 161.721 126.398 166.98C125.857 172.161 125.084 177.149 124.078 181.944C123.15 186.661 121.874 190.915 120.25 194.704C118.626 198.416 116.538 201.393 113.986 203.636C111.434 205.801 108.302 206.884 104.59 206.884V204.68C108.148 204.68 111.125 203.365 113.522 200.736C115.92 198.029 117.853 194.395 119.322 189.832C120.792 185.269 121.952 180.088 122.802 174.288C123.73 168.411 124.426 162.301 124.89 155.96C125.354 149.619 125.78 143.355 126.166 137.168C126.321 134.461 126.166 132.412 125.702 131.02C125.316 129.628 124.426 128.661 123.034 128.12C121.642 127.579 119.554 127.269 116.77 127.192V124.872C118.394 124.949 120.328 125.027 122.57 125.104C124.813 125.181 126.862 125.22 128.718 125.22C130.497 125.22 132.198 125.181 133.822 125.104C135.524 124.949 137.225 124.872 138.926 124.872C141.865 124.872 144.533 124.949 146.93 125.104C149.328 125.181 152.189 125.22 155.514 125.22C157.448 125.22 159.536 125.22 161.778 125.22C164.098 125.143 166.264 125.104 168.274 125.104C170.362 125.027 172.102 124.949 173.494 124.872ZM217.15 124.64L245.338 197.256C246.421 200.04 247.62 201.973 248.934 203.056C250.326 204.061 251.564 204.603 252.646 204.68V207C250.326 206.845 247.581 206.768 244.41 206.768C241.317 206.691 238.185 206.652 235.014 206.652C231.457 206.652 228.093 206.691 224.922 206.768C221.752 206.768 219.238 206.845 217.382 207V204.68C221.326 204.525 223.801 203.868 224.806 202.708C225.889 201.471 225.657 198.88 224.11 194.936L204.39 140.996L206.478 137.98L188.846 183.916C187.145 188.169 186.101 191.649 185.714 194.356C185.405 197.063 185.598 199.151 186.294 200.62C187.068 202.089 188.266 203.133 189.89 203.752C191.592 204.293 193.602 204.603 195.922 204.68V207C193.37 206.845 190.934 206.768 188.614 206.768C186.294 206.691 183.936 206.652 181.538 206.652C179.837 206.652 178.213 206.691 176.666 206.768C175.197 206.768 173.882 206.845 172.722 207V204.68C174.346 204.371 176.009 203.327 177.71 201.548C179.412 199.769 181.074 196.753 182.698 192.5L209.146 124.64C210.384 124.717 211.698 124.756 213.09 124.756C214.56 124.756 215.913 124.717 217.15 124.64ZM225.27 173.592V175.912H190.702L191.862 173.592H225.27ZM316.142 124.872C315.833 128.816 315.601 132.605 315.446 136.24C315.369 139.875 315.33 142.659 315.33 144.592C315.33 146.293 315.369 147.917 315.446 149.464C315.523 151.011 315.601 152.325 315.678 153.408H313.01C311.773 146.912 310.187 141.769 308.254 137.98C306.398 134.191 304.155 131.523 301.526 129.976C298.897 128.352 295.803 127.54 292.246 127.54H289.578V193.776C289.578 196.869 289.887 199.189 290.506 200.736C291.202 202.283 292.439 203.327 294.218 203.868C295.997 204.332 298.587 204.603 301.99 204.68V207C299.593 206.923 296.383 206.845 292.362 206.768C288.418 206.691 284.281 206.652 279.95 206.652C275.697 206.652 271.675 206.691 267.886 206.768C264.097 206.845 261.042 206.923 258.722 207V204.68C262.202 204.603 264.831 204.332 266.61 203.868C268.389 203.327 269.587 202.283 270.206 200.736C270.825 199.189 271.134 196.869 271.134 193.776V127.54H268.582C265.025 127.54 261.931 128.352 259.302 129.976C256.673 131.523 254.43 134.191 252.574 137.98C250.718 141.692 249.094 146.835 247.702 153.408H245.034C245.189 152.325 245.266 151.011 245.266 149.464C245.343 147.917 245.382 146.293 245.382 144.592C245.382 142.659 245.305 139.875 245.15 136.24C245.073 132.605 244.879 128.816 244.57 124.872C248.127 124.949 251.994 125.027 256.17 125.104C260.423 125.181 264.677 125.22 268.93 125.22C273.183 125.22 277.011 125.22 280.414 125.22C283.894 125.22 287.722 125.22 291.898 125.22C296.151 125.22 300.405 125.181 304.658 125.104C308.911 125.027 312.739 124.949 316.142 124.872ZM351.679 124.64L379.867 197.256C380.949 200.04 382.148 201.973 383.463 203.056C384.855 204.061 386.092 204.603 387.175 204.68V207C384.855 206.845 382.109 206.768 378.939 206.768C375.845 206.691 372.713 206.652 369.543 206.652C365.985 206.652 362.621 206.691 359.451 206.768C356.28 206.768 353.767 206.845 351.911 207V204.68C355.855 204.525 358.329 203.868 359.335 202.708C360.417 201.471 360.185 198.88 358.639 194.936L338.919 140.996L341.007 137.98L323.375 183.916C321.673 188.169 320.629 191.649 320.243 194.356C319.933 197.063 320.127 199.151 320.823 200.62C321.596 202.089 322.795 203.133 324.419 203.752C326.12 204.293 328.131 204.603 330.451 204.68V207C327.899 206.845 325.463 206.768 323.143 206.768C320.823 206.691 318.464 206.652 316.067 206.652C314.365 206.652 312.741 206.691 311.195 206.768C309.725 206.768 308.411 206.845 307.251 207V204.68C308.875 204.371 310.537 203.327 312.239 201.548C313.94 199.769 315.603 196.753 317.227 192.5L343.675 124.64C344.912 124.717 346.227 124.756 347.619 124.756C349.088 124.756 350.441 124.717 351.679 124.64ZM359.799 173.592V175.912H325.231L326.391 173.592H359.799Z" fill="#1E1E1E"/>
</g>
</svg>
