<svg width="600" height="90" viewBox="0 0 600 90" fill="none" xmlns="http://www.w3.org/2000/svg">
<mask id="mask0_29_43" style="mask-type:alpha" maskUnits="userSpaceOnUse" x="0" y="0" width="600" height="90">
<rect width="600" height="90" fill="#D9D9D9"/>
</mask>
<g mask="url(#mask0_29_43)">
<path d="M-20.056 5.872C-18.0453 5.94933 -15.416 6.02666 -12.168 6.104C-8.92 6.18133 -5.672 6.22 -2.424 6.22C1.288 6.22 4.884 6.18133 8.364 6.104C11.844 6.02666 14.3187 5.988 15.788 5.988C25.3773 5.988 32.5307 7.68933 37.248 11.092C42.0427 14.4947 44.44 18.864 44.44 24.2C44.44 26.9067 43.628 29.652 42.004 32.436C40.38 35.22 37.8667 37.6947 34.464 39.86C31.0613 42.0253 26.6533 43.6107 21.24 44.616V44.848C28.5093 45.3893 34.2707 46.704 38.524 48.792C42.7773 50.88 45.832 53.3933 47.688 56.332C49.544 59.2707 50.472 62.3253 50.472 65.496C50.472 70.368 49.196 74.4667 46.644 77.792C44.092 81.1173 40.4187 83.6693 35.624 85.448C30.8293 87.1493 25.1067 88 18.456 88C16.6 88 13.932 87.9613 10.452 87.884C6.972 87.7293 2.75733 87.652 -2.192 87.652C-5.59467 87.652 -8.92 87.6907 -12.168 87.768C-15.416 87.768 -18.0453 87.8453 -20.056 88V85.68C-17.5813 85.5253 -15.7253 85.216 -14.488 84.752C-13.2507 84.288 -12.4387 83.36 -12.052 81.968C-11.588 80.576 -11.356 78.488 -11.356 75.704V18.168C-11.356 15.3067 -11.588 13.2187 -12.052 11.904C-12.4387 10.512 -13.2893 9.584 -14.604 9.12C-15.8413 8.57866 -17.6587 8.26933 -20.056 8.192V5.872ZM14.28 8.192C11.264 8.192 9.292 8.84933 8.364 10.164C7.51333 11.4787 7.088 14.1467 7.088 18.168V75.704C7.088 78.4107 7.28133 80.46 7.668 81.852C8.132 83.244 8.90533 84.172 9.988 84.636C11.148 85.1 12.8493 85.332 15.092 85.332C20.66 85.332 24.72 83.592 27.272 80.112C29.9013 76.5547 31.216 71.528 31.216 65.032C31.216 59.0773 29.708 54.476 26.692 51.228C23.7533 47.98 18.8427 46.356 11.96 46.356H2.1C2.1 46.356 2.1 46.0467 2.1 45.428C2.1 44.732 2.1 44.384 2.1 44.384H12.076C15.7107 44.384 18.4947 43.5333 20.428 41.832C22.3613 40.0533 23.7147 37.7333 24.488 34.872C25.2613 31.9333 25.648 28.8013 25.648 25.476C25.648 19.7533 24.7587 15.4613 22.98 12.6C21.2013 9.66133 18.3013 8.192 14.28 8.192ZM96.5095 4.24799C104.707 4.24799 111.86 5.91066 117.969 9.236C124.156 12.5613 128.951 17.356 132.354 23.62C135.756 29.8067 137.458 37.3467 137.458 46.24C137.458 54.9013 135.718 62.48 132.238 68.976C128.758 75.472 123.886 80.5373 117.622 84.172C111.435 87.8067 104.359 89.624 96.3935 89.624C88.1962 89.624 81.0042 87.9613 74.8175 84.636C68.7082 81.3107 63.9522 76.516 60.5495 70.252C57.1468 63.988 55.4455 56.448 55.4455 47.632C55.4455 38.9707 57.1855 31.392 60.6655 24.896C64.2228 18.4 69.0562 13.3347 75.1655 9.7C81.3522 6.06533 88.4668 4.24799 96.5095 4.24799ZM96.0455 6.33599C91.7148 6.33599 87.9255 8.07599 84.6775 11.556C81.5068 15.036 79.0322 19.8307 77.2535 25.94C75.5522 32.0493 74.7015 39.1253 74.7015 47.168C74.7015 55.3653 75.6682 62.5187 77.6015 68.628C79.6122 74.66 82.2802 79.3387 85.6055 82.664C89.0082 85.912 92.7588 87.536 96.8575 87.536C101.188 87.536 104.939 85.796 108.109 82.316C111.357 78.836 113.832 74.0413 115.534 67.932C117.312 61.7453 118.202 54.6693 118.202 46.704C118.202 38.4293 117.196 31.276 115.185 25.244C113.252 19.212 110.584 14.572 107.181 11.324C103.856 7.99866 100.144 6.33599 96.0455 6.33599ZM227.028 5.872V8.192C224.553 8.26933 222.697 8.57866 221.46 9.12C220.222 9.584 219.372 10.512 218.908 11.904C218.521 13.2187 218.328 15.3067 218.328 18.168V75.704C218.328 78.488 218.521 80.576 218.908 81.968C219.372 83.36 220.222 84.288 221.46 84.752C222.697 85.216 224.553 85.5253 227.028 85.68V88C225.017 87.8453 222.388 87.768 219.14 87.768C215.892 87.6907 212.412 87.652 208.7 87.652C205.452 87.652 202.204 87.6907 198.956 87.768C195.785 87.768 193.194 87.8453 191.184 88V85.68C193.581 85.5253 195.398 85.216 196.636 84.752C197.95 84.288 198.801 83.36 199.188 81.968C199.652 80.576 199.884 78.488 199.884 75.704V18.168C199.884 15.3067 199.652 13.18 199.188 11.788C198.724 10.396 197.796 9.468 196.404 9.00399C195.089 8.46266 193.117 8.192 190.488 8.192H178.54C175.91 8.192 173.9 8.46266 172.508 9.00399C171.193 9.468 170.304 10.396 169.84 11.788C169.376 13.18 169.144 15.3067 169.144 18.168V75.704C169.144 78.488 169.337 80.576 169.724 81.968C170.188 83.36 171.038 84.288 172.276 84.752C173.513 85.216 175.369 85.5253 177.844 85.68V88C175.756 87.8453 173.126 87.768 169.956 87.768C166.785 87.6907 163.576 87.652 160.328 87.652C156.538 87.652 153.02 87.6907 149.772 87.768C146.601 87.768 144.01 87.8453 142 88V85.68C144.397 85.5253 146.214 85.216 147.452 84.752C148.766 84.288 149.617 83.36 150.004 81.968C150.468 80.576 150.7 78.488 150.7 75.704V18.168C150.7 15.3067 150.468 13.2187 150.004 11.904C149.617 10.512 148.766 9.584 147.452 9.12C146.214 8.57866 144.397 8.26933 142 8.192V5.872C144.01 5.94933 146.601 6.02666 149.772 6.104C153.02 6.18133 156.538 6.22 160.328 6.22C164.89 6.22 169.414 6.18133 173.9 6.104C178.385 5.94933 181.981 5.872 184.688 5.872C187.394 5.872 190.952 5.94933 195.36 6.104C199.768 6.18133 204.214 6.22 208.7 6.22C212.412 6.22 215.892 6.18133 219.14 6.104C222.388 6.02666 225.017 5.94933 227.028 5.872ZM231.297 5.872C233.23 5.94933 235.821 6.02666 239.069 6.104C242.394 6.18133 245.681 6.22 248.929 6.22C252.641 6.22 256.237 6.18133 259.717 6.104C263.197 6.02666 265.672 5.988 267.141 5.988C277.89 5.988 285.933 8.11466 291.269 12.368C296.605 16.6213 299.273 22.112 299.273 28.84C299.273 31.624 298.732 34.5627 297.649 37.656C296.566 40.672 294.71 43.4947 292.081 46.124C289.529 48.676 286.01 50.764 281.525 52.388C277.04 54.012 271.394 54.824 264.589 54.824H252.757V52.504H263.429C267.992 52.504 271.433 51.46 273.753 49.372C276.15 47.284 277.774 44.5387 278.625 41.136C279.553 37.7333 280.017 34.06 280.017 30.116C280.017 22.7693 278.934 17.2787 276.769 13.644C274.604 10.0093 270.892 8.192 265.633 8.192C262.617 8.192 260.645 8.84933 259.717 10.164C258.866 11.4787 258.441 14.1467 258.441 18.168V75.008C258.441 78.024 258.75 80.2667 259.369 81.736C259.988 83.2053 261.186 84.172 262.965 84.636C264.744 85.1 267.373 85.3707 270.853 85.448V88C268.456 87.9227 265.362 87.8453 261.573 87.768C257.784 87.6907 253.801 87.652 249.625 87.652C246.3 87.652 243.052 87.6907 239.881 87.768C236.71 87.8453 233.849 87.9227 231.297 88V85.68C233.772 85.5253 235.628 85.216 236.865 84.752C238.102 84.288 238.914 83.36 239.301 81.968C239.765 80.576 239.997 78.488 239.997 75.704V18.168C239.997 15.3067 239.765 13.2187 239.301 11.904C238.914 10.512 238.064 9.584 236.749 9.12C235.512 8.57866 233.694 8.26933 231.297 8.192V5.872ZM344.237 4.24799C352.435 4.24799 359.588 5.91066 365.697 9.236C371.884 12.5613 376.679 17.356 380.081 23.62C383.484 29.8067 385.185 37.3467 385.185 46.24C385.185 54.9013 383.445 62.48 379.965 68.976C376.485 75.472 371.613 80.5373 365.349 84.172C359.163 87.8067 352.087 89.624 344.121 89.624C335.924 89.624 328.732 87.9613 322.545 84.636C316.436 81.3107 311.68 76.516 308.277 70.252C304.875 63.988 303.173 56.448 303.173 47.632C303.173 38.9707 304.913 31.392 308.393 24.896C311.951 18.4 316.784 13.3347 322.893 9.7C329.08 6.06533 336.195 4.24799 344.237 4.24799ZM343.773 6.33599C339.443 6.33599 335.653 8.07599 332.405 11.556C329.235 15.036 326.76 19.8307 324.981 25.94C323.28 32.0493 322.429 39.1253 322.429 47.168C322.429 55.3653 323.396 62.5187 325.329 68.628C327.34 74.66 330.008 79.3387 333.333 82.664C336.736 85.912 340.487 87.536 344.585 87.536C348.916 87.536 352.667 85.796 355.837 82.316C359.085 78.836 361.56 74.0413 363.261 67.932C365.04 61.7453 365.929 54.6693 365.929 46.704C365.929 38.4293 364.924 31.276 362.913 25.244C360.98 19.212 358.312 14.572 354.909 11.324C351.584 7.99866 347.872 6.33599 343.773 6.33599ZM432.742 4.24799C437.846 4.24799 442.022 5.02133 445.27 6.568C448.595 8.03733 451.534 9.77733 454.086 11.788C455.633 12.948 456.793 13.1027 457.566 12.252C458.417 11.324 458.997 9.19733 459.306 5.872H461.974C461.819 8.888 461.703 12.5613 461.626 16.892C461.549 21.1453 461.51 26.8293 461.51 33.944H458.842C458.455 30.3867 457.953 27.3707 457.334 24.896C456.715 22.344 455.865 20.1013 454.782 18.168C453.699 16.2347 452.153 14.4947 450.142 12.948C448.209 11.0147 445.966 9.584 443.414 8.656C440.862 7.728 438.194 7.264 435.41 7.264C431.234 7.264 427.677 8.38533 424.738 10.628C421.799 12.7933 419.402 15.7707 417.546 19.56C415.767 23.3493 414.453 27.6413 413.602 32.436C412.751 37.1533 412.326 42.064 412.326 47.168C412.326 52.3493 412.751 57.3373 413.602 62.132C414.53 66.8493 415.922 71.064 417.778 74.776C419.711 78.488 422.186 81.4267 425.202 83.592C428.218 85.7573 431.775 86.84 435.874 86.84C438.426 86.84 440.978 86.376 443.53 85.448C446.159 84.4427 448.402 83.012 450.258 81.156C453.274 78.836 455.323 75.9747 456.406 72.572C457.489 69.092 458.301 64.4907 458.842 58.768H461.51C461.51 66.1147 461.549 72.0693 461.626 76.632C461.703 81.1173 461.819 84.9067 461.974 88H459.306C458.997 84.6747 458.455 82.5867 457.682 81.736C456.986 80.8853 455.787 81.0013 454.086 82.084C451.225 84.0947 448.17 85.8733 444.922 87.42C441.751 88.8893 437.653 89.624 432.626 89.624C424.429 89.624 417.237 87.9613 411.05 84.636C404.941 81.3107 400.185 76.516 396.782 70.252C393.379 63.988 391.678 56.448 391.678 47.632C391.678 38.9707 393.418 31.392 396.898 24.896C400.455 18.4 405.289 13.3347 411.398 9.7C417.585 6.06533 424.699 4.24799 432.742 4.24799ZM505.715 5.872V8.192C503.008 8.26933 500.959 8.57866 499.567 9.12C498.175 9.584 497.247 10.512 496.783 11.904C496.319 13.2187 496.087 15.3067 496.087 18.168V75.704C496.087 78.3333 496.242 80.3827 496.551 81.852C496.86 83.244 497.518 84.2493 498.523 84.868C499.528 85.4093 500.959 85.68 502.815 85.68C506.604 85.68 509.543 84.7907 511.631 83.012C513.719 81.2333 515.188 78.7587 516.039 75.588C516.89 72.34 517.315 68.512 517.315 64.104C517.315 59.696 516.812 55.7907 515.807 52.388C514.879 48.908 513.255 46.2013 510.935 44.268C508.615 42.3347 505.328 41.368 501.075 41.368C499.683 41.368 498.214 41.368 496.667 41.368C495.198 41.368 493.728 41.4067 492.259 41.484C490.867 41.484 489.63 41.484 488.547 41.484V39.164C491.176 39.164 493.767 39.164 496.319 39.164C498.948 39.0867 501.152 39.048 502.931 39.048C509.195 39.048 514.492 39.6667 518.823 40.904C523.154 42.1413 526.595 43.8427 529.147 46.008C531.776 48.1733 533.671 50.6867 534.831 53.548C535.991 56.332 536.571 59.3093 536.571 62.48C536.571 65.8053 535.952 69.0147 534.715 72.108C533.478 75.2013 531.506 77.9467 528.799 80.344C526.17 82.664 522.767 84.52 518.591 85.912C514.415 87.2267 509.388 87.884 503.511 87.884C501.732 87.884 499.374 87.8453 496.435 87.768C493.574 87.6907 490.21 87.652 486.343 87.652C483.25 87.652 480.04 87.6907 476.715 87.768C473.467 87.768 470.876 87.8453 468.943 88V85.68C471.34 85.5253 473.158 85.216 474.395 84.752C475.71 84.288 476.56 83.36 476.947 81.968C477.411 80.576 477.643 78.488 477.643 75.704V18.168C477.643 15.3067 477.411 13.2187 476.947 11.904C476.56 10.512 475.71 9.584 474.395 9.12C473.158 8.57866 471.34 8.26933 468.943 8.192V5.872C470.876 5.94933 473.467 6.02666 476.715 6.104C480.04 6.18133 483.559 6.22 487.271 6.22C490.674 6.22 494.038 6.18133 497.363 6.104C500.766 6.02666 503.55 5.94933 505.715 5.872ZM577.635 5.872V8.192C575.16 8.26933 573.266 8.57866 571.951 9.12C570.714 9.584 569.902 10.512 569.515 11.904C569.128 13.2187 568.935 15.3067 568.935 18.168V75.704C568.935 78.488 569.128 80.576 569.515 81.968C569.979 83.36 570.83 84.288 572.067 84.752C573.304 85.216 575.16 85.5253 577.635 85.68V88C575.547 87.8453 572.918 87.768 569.747 87.768C566.576 87.6907 563.367 87.652 560.119 87.652C556.407 87.652 552.888 87.6907 549.563 87.768C546.315 87.768 543.724 87.8453 541.791 88V85.68C544.266 85.5253 546.122 85.216 547.359 84.752C548.596 84.288 549.408 83.36 549.795 81.968C550.259 80.576 550.491 78.488 550.491 75.704V18.168C550.491 15.3067 550.259 13.2187 549.795 11.904C549.331 10.512 548.48 9.584 547.243 9.12C546.006 8.57866 544.188 8.26933 541.791 8.192V5.872C543.724 5.94933 546.315 6.02666 549.563 6.104C552.888 6.18133 556.407 6.22 560.119 6.22C563.367 6.22 566.576 6.18133 569.747 6.104C572.918 6.02666 575.547 5.94933 577.635 5.872Z" fill="#D9D9D9"/>
</g>
</svg>
