<svg width="579" height="262" viewBox="0 0 579 262" fill="none" xmlns="http://www.w3.org/2000/svg">
<mask id="mask0_28_27" style="mask-type:alpha" maskUnits="userSpaceOnUse" x="0" y="0" width="579" height="262">
<rect width="579" height="262" fill="#151515"/>
</mask>
<g mask="url(#mask0_28_27)">
<path d="M66.472 32.872C66.1627 36.816 65.9307 40.6053 65.776 44.24C65.6987 47.8747 65.66 50.6587 65.66 52.592C65.66 54.2933 65.6987 55.9173 65.776 57.464C65.8533 59.0107 65.9307 60.3253 66.008 61.408H63.34C62.1027 54.912 60.5173 49.7693 58.584 45.98C56.728 42.1907 54.4853 39.5227 51.856 37.976C49.2267 36.352 46.1333 35.54 42.576 35.54H39.908V101.776C39.908 104.869 40.2173 107.189 40.836 108.736C41.532 110.283 42.7693 111.327 44.548 111.868C46.3267 112.332 48.9173 112.603 52.32 112.68V115C49.9227 114.923 46.7133 114.845 42.692 114.768C38.748 114.691 34.6107 114.652 30.28 114.652C26.0267 114.652 22.0053 114.691 18.216 114.768C14.4267 114.845 11.372 114.923 9.052 115V112.68C12.532 112.603 15.1613 112.332 16.94 111.868C18.7187 111.327 19.9173 110.283 20.536 108.736C21.1547 107.189 21.464 104.869 21.464 101.776V35.54H18.912C15.3547 35.54 12.2613 36.352 9.632 37.976C7.00267 39.5227 4.76 42.1907 2.904 45.98C1.048 49.692 -0.576 54.8347 -1.968 61.408H-4.636C-4.48133 60.3253 -4.404 59.0107 -4.404 57.464C-4.32667 55.9173 -4.288 54.2933 -4.288 52.592C-4.288 50.6587 -4.36533 47.8747 -4.52 44.24C-4.59733 40.6053 -4.79067 36.816 -5.1 32.872C-1.54267 32.9493 2.324 33.0267 6.5 33.104C10.7533 33.1813 15.0067 33.22 19.26 33.22C23.5133 33.22 27.3413 33.22 30.744 33.22C34.224 33.22 38.052 33.22 42.228 33.22C46.4813 33.22 50.7347 33.1813 54.988 33.104C59.2413 33.0267 63.0693 32.9493 66.472 32.872ZM102.009 32.64L130.197 105.256C131.279 108.04 132.478 109.973 133.793 111.056C135.185 112.061 136.422 112.603 137.505 112.68V115C135.185 114.845 132.439 114.768 129.269 114.768C126.175 114.691 123.043 114.652 119.873 114.652C116.315 114.652 112.951 114.691 109.781 114.768C106.61 114.768 104.097 114.845 102.241 115V112.68C106.185 112.525 108.659 111.868 109.665 110.708C110.747 109.471 110.515 106.88 108.969 102.936L89.2488 48.996L91.3368 45.98L73.7048 91.916C72.0034 96.1693 70.9594 99.6493 70.5728 102.356C70.2634 105.063 70.4568 107.151 71.1528 108.62C71.9261 110.089 73.1248 111.133 74.7488 111.752C76.4501 112.293 78.4608 112.603 80.7808 112.68V115C78.2288 114.845 75.7928 114.768 73.4728 114.768C71.1528 114.691 68.7941 114.652 66.3968 114.652C64.6954 114.652 63.0714 114.691 61.5248 114.768C60.0554 114.768 58.7408 114.845 57.5808 115V112.68C59.2048 112.371 60.8674 111.327 62.5688 109.548C64.2701 107.769 65.9328 104.753 67.5568 100.5L94.0048 32.64C95.2421 32.7173 96.5568 32.756 97.9488 32.756C99.4181 32.756 100.771 32.7173 102.009 32.64ZM110.129 81.592V83.912H75.5608L76.7208 81.592H110.129ZM173 32.872V35.192C170.525 35.2693 168.669 35.5787 167.432 36.12C166.195 36.584 165.344 37.512 164.88 38.904C164.493 40.2187 164.3 42.3067 164.3 45.168V102.704C164.3 105.488 164.493 107.576 164.88 108.968C165.344 110.36 166.195 111.288 167.432 111.752C168.669 112.216 170.525 112.525 173 112.68V115C170.912 114.845 168.283 114.768 165.112 114.768C161.941 114.691 158.732 114.652 155.484 114.652C151.695 114.652 148.176 114.691 144.928 114.768C141.757 114.768 139.167 114.845 137.156 115V112.68C139.553 112.525 141.371 112.216 142.608 111.752C143.923 111.288 144.773 110.36 145.16 108.968C145.624 107.576 145.856 105.488 145.856 102.704V45.168C145.856 42.3067 145.624 40.2187 145.16 38.904C144.773 37.512 143.923 36.584 142.608 36.12C141.371 35.5787 139.553 35.2693 137.156 35.192V32.872C139.167 32.9493 141.757 33.0267 144.928 33.104C148.176 33.1813 151.695 33.22 155.484 33.22C158.732 33.22 161.941 33.1813 165.112 33.104C168.283 33.0267 170.912 32.9493 173 32.872ZM199.68 39.252C199.68 39.252 199.68 39.6773 199.68 40.528C199.68 41.3013 199.68 42.1133 199.68 42.964C199.757 43.8147 199.796 44.24 199.796 44.24L161.052 109.78L160.008 106.532L199.68 39.252ZM224.504 32.872V35.192C222.029 35.2693 220.173 35.5787 218.936 36.12C217.699 36.584 216.848 37.512 216.384 38.904C215.997 40.2187 215.804 42.3067 215.804 45.168V102.704C215.804 105.488 215.997 107.576 216.384 108.968C216.848 110.36 217.699 111.288 218.936 111.752C220.173 112.216 222.029 112.525 224.504 112.68V115C222.493 114.845 219.864 114.768 216.616 114.768C213.368 114.691 209.888 114.652 206.176 114.652C202.928 114.652 199.68 114.691 196.432 114.768C193.261 114.768 190.671 114.845 188.66 115V112.68C191.057 112.525 192.875 112.216 194.112 111.752C195.349 111.288 196.2 110.36 196.664 108.968C197.128 107.576 197.36 105.488 197.36 102.704V45.168C197.36 42.3067 197.128 40.2187 196.664 38.904C196.2 37.512 195.349 36.584 194.112 36.12C192.875 35.5787 191.057 35.2693 188.66 35.192V32.872C190.671 32.9493 193.261 33.0267 196.432 33.104C199.68 33.1813 202.928 33.22 206.176 33.22C209.888 33.22 213.368 33.1813 216.616 33.104C219.864 33.0267 222.493 32.9493 224.504 32.872ZM198.984 5.37999C201.613 5.37999 203.779 6.11466 205.48 7.58399C207.259 8.97599 208.148 10.7933 208.148 13.036C208.148 14.892 207.491 16.516 206.176 17.908C204.939 19.3 203.276 20.5373 201.188 21.62C199.023 22.7027 196.2 23.6693 192.72 24.52C189.24 25.2933 185.257 25.68 180.772 25.68C176.287 25.68 172.304 25.2933 168.824 24.52C165.344 23.6693 162.521 22.7027 160.356 21.62C158.345 20.6147 156.683 19.416 155.368 18.024C154.131 16.632 153.512 14.9693 153.512 13.036C153.512 10.8707 154.363 9.05333 156.064 7.58399C157.765 6.11466 159.969 5.37999 162.676 5.37999C165.305 5.37999 167.509 6.11466 169.288 7.58399C171.144 8.97599 172.072 10.832 172.072 13.152C172.072 15.1627 171.337 16.7867 169.868 18.024C168.476 19.2613 166.813 20.1507 164.88 20.692C166.427 21.3107 168.089 21.852 169.868 22.316C171.724 22.7027 173.619 22.9733 175.552 23.128C177.485 23.2827 179.225 23.36 180.772 23.36C182.396 23.36 184.136 23.2827 185.992 23.128C187.848 22.9733 189.704 22.7027 191.56 22.316C193.493 21.852 195.156 21.272 196.548 20.576C194.537 20.112 192.875 19.2613 191.56 18.024C190.245 16.7093 189.588 15.0853 189.588 13.152C189.588 10.832 190.477 8.97599 192.256 7.58399C194.035 6.11466 196.277 5.37999 198.984 5.37999ZM328.592 32.872V35.192C326.117 35.2693 324.261 35.5787 323.024 36.12C321.787 36.584 320.936 37.512 320.472 38.904C320.085 40.2187 319.892 42.3067 319.892 45.168V102.704C319.892 105.488 320.085 107.576 320.472 108.968C320.936 110.36 321.787 111.288 323.024 111.752C324.261 112.216 326.117 112.525 328.592 112.68V115C326.427 114.845 323.681 114.768 320.356 114.768C317.108 114.691 313.783 114.652 310.38 114.652C306.668 114.652 303.188 114.691 299.94 114.768C296.692 114.768 294.063 114.845 292.052 115V112.68C294.681 112.525 296.653 112.216 297.968 111.752C299.36 111.288 300.288 110.36 300.752 108.968C301.216 107.576 301.448 105.488 301.448 102.704V39.948H302.26L273.492 115.116H271.636L240.316 40.412V95.976C240.316 100.229 240.548 103.516 241.012 105.836C241.476 108.079 242.481 109.703 244.028 110.708C245.652 111.636 248.165 112.293 251.568 112.68V115C250.099 114.845 248.165 114.768 245.768 114.768C243.371 114.691 241.128 114.652 239.04 114.652C237.261 114.652 235.444 114.691 233.588 114.768C231.732 114.768 230.185 114.845 228.948 115V112.68C231.423 112.293 233.279 111.636 234.516 110.708C235.753 109.78 236.565 108.272 236.952 106.184C237.416 104.019 237.648 101.08 237.648 97.368V45.168C237.648 42.3067 237.416 40.2187 236.952 38.904C236.565 37.512 235.715 36.584 234.4 36.12C233.163 35.5787 231.345 35.2693 228.948 35.192V32.872C230.185 32.9493 231.732 33.0267 233.588 33.104C235.444 33.1813 237.261 33.22 239.04 33.22C242.365 33.22 245.613 33.1813 248.784 33.104C252.032 33.0267 254.893 32.9493 257.368 32.872L281.728 91.684L278.828 94.352L302.144 33.22C303.459 33.22 304.812 33.22 306.204 33.22C307.596 33.22 308.988 33.22 310.38 33.22C313.783 33.22 317.108 33.1813 320.356 33.104C323.681 33.0267 326.427 32.9493 328.592 32.872ZM368.7 32.872V35.192C366.225 35.2693 364.369 35.5787 363.132 36.12C361.895 36.584 361.044 37.512 360.58 38.904C360.193 40.2187 360 42.3067 360 45.168V102.704C360 105.488 360.193 107.576 360.58 108.968C361.044 110.36 361.895 111.288 363.132 111.752C364.369 112.216 366.225 112.525 368.7 112.68V115C366.612 114.845 363.983 114.768 360.812 114.768C357.641 114.691 354.432 114.652 351.184 114.652C347.395 114.652 343.876 114.691 340.628 114.768C337.457 114.768 334.867 114.845 332.856 115V112.68C335.253 112.525 337.071 112.216 338.308 111.752C339.623 111.288 340.473 110.36 340.86 108.968C341.324 107.576 341.556 105.488 341.556 102.704V45.168C341.556 42.3067 341.324 40.2187 340.86 38.904C340.473 37.512 339.623 36.584 338.308 36.12C337.071 35.5787 335.253 35.2693 332.856 35.192V32.872C334.867 32.9493 337.457 33.0267 340.628 33.104C343.876 33.1813 347.395 33.22 351.184 33.22C354.432 33.22 357.641 33.1813 360.812 33.104C363.983 33.0267 366.612 32.9493 368.7 32.872ZM395.38 39.252C395.38 39.252 395.38 39.6773 395.38 40.528C395.38 41.3013 395.38 42.1133 395.38 42.964C395.457 43.8147 395.496 44.24 395.496 44.24L356.752 109.78L355.708 106.532L395.38 39.252ZM420.204 32.872V35.192C417.729 35.2693 415.873 35.5787 414.636 36.12C413.399 36.584 412.548 37.512 412.084 38.904C411.697 40.2187 411.504 42.3067 411.504 45.168V102.704C411.504 105.488 411.697 107.576 412.084 108.968C412.548 110.36 413.399 111.288 414.636 111.752C415.873 112.216 417.729 112.525 420.204 112.68V115C418.193 114.845 415.564 114.768 412.316 114.768C409.068 114.691 405.588 114.652 401.876 114.652C398.628 114.652 395.38 114.691 392.132 114.768C388.961 114.768 386.371 114.845 384.36 115V112.68C386.757 112.525 388.575 112.216 389.812 111.752C391.049 111.288 391.9 110.36 392.364 108.968C392.828 107.576 393.06 105.488 393.06 102.704V45.168C393.06 42.3067 392.828 40.2187 392.364 38.904C391.9 37.512 391.049 36.584 389.812 36.12C388.575 35.5787 386.757 35.2693 384.36 35.192V32.872C386.371 32.9493 388.961 33.0267 392.132 33.104C395.38 33.1813 398.628 33.22 401.876 33.22C405.588 33.22 409.068 33.1813 412.316 33.104C415.564 33.0267 418.193 32.9493 420.204 32.872ZM473.716 115V112.68C476.191 112.525 478.047 112.216 479.284 111.752C480.522 111.288 481.334 110.36 481.72 108.968C482.184 107.576 482.416 105.488 482.416 102.704V45.168C482.416 42.3067 482.184 40.2187 481.72 38.904C481.334 37.512 480.483 36.584 479.168 36.12C477.931 35.5787 476.114 35.2693 473.716 35.192V32.872C475.804 32.9493 478.511 33.0267 481.836 33.104C485.239 33.1813 488.603 33.22 491.928 33.22C495.486 33.22 498.811 33.1813 501.904 33.104C505.075 33.0267 507.627 32.9493 509.56 32.872V35.192C507.086 35.2693 505.191 35.5787 503.876 36.12C502.639 36.584 501.827 37.512 501.44 38.904C501.054 40.2187 500.86 42.3067 500.86 45.168V102.704C500.86 105.488 501.054 107.576 501.44 108.968C501.904 110.36 502.755 111.288 503.992 111.752C505.23 112.216 507.086 112.525 509.56 112.68V115C507.627 114.845 505.075 114.768 501.904 114.768C498.811 114.691 495.486 114.652 491.928 114.652C488.603 114.652 485.239 114.691 481.836 114.768C478.511 114.768 475.804 114.845 473.716 115ZM424.532 115V112.68C427.007 112.525 428.863 112.216 430.1 111.752C431.338 111.288 432.15 110.36 432.536 108.968C433 107.576 433.232 105.488 433.232 102.704V45.168C433.232 42.3067 433 40.2187 432.536 38.904C432.15 37.512 431.299 36.584 429.984 36.12C428.747 35.5787 426.93 35.2693 424.532 35.192V32.872C426.543 32.9493 429.134 33.0267 432.304 33.104C435.552 33.1813 439.071 33.22 442.86 33.22C446.108 33.22 449.318 33.1813 452.488 33.104C455.659 33.0267 458.288 32.9493 460.376 32.872V35.192C457.902 35.2693 456.007 35.5787 454.692 36.12C453.455 36.584 452.643 37.512 452.256 38.904C451.87 40.2187 451.676 42.3067 451.676 45.168V102.704C451.676 105.488 451.87 107.576 452.256 108.968C452.72 110.36 453.571 111.288 454.808 111.752C456.046 112.216 457.902 112.525 460.376 112.68V115C458.288 114.845 455.659 114.768 452.488 114.768C449.318 114.691 446.108 114.652 442.86 114.652C439.071 114.652 435.552 114.691 432.304 114.768C429.134 114.768 426.543 114.845 424.532 115ZM444.136 74.864V72.544H489.956V74.864H444.136ZM574.034 32.872C573.724 36.352 573.492 39.716 573.338 42.964C573.26 46.212 573.222 48.7253 573.222 50.504C573.222 52.2053 573.26 53.8293 573.338 55.376C573.415 56.9227 573.492 58.2373 573.57 59.32H570.902C569.896 53.288 568.504 48.5707 566.726 45.168C564.947 41.688 562.743 39.2133 560.114 37.744C557.562 36.2747 554.507 35.54 550.95 35.54H548.978C546.735 35.54 545.034 35.7333 543.874 36.12C542.714 36.5067 541.94 37.28 541.554 38.44C541.167 39.6 540.974 41.3787 540.974 43.776V102.704C540.974 105.488 541.206 107.576 541.67 108.968C542.211 110.36 543.216 111.288 544.686 111.752C546.232 112.216 548.436 112.525 551.298 112.68V115C549.055 114.845 546.194 114.768 542.714 114.768C539.234 114.691 535.715 114.652 532.158 114.652C528.368 114.652 524.85 114.691 521.602 114.768C518.431 114.768 515.84 114.845 513.83 115V112.68C516.227 112.525 518.044 112.216 519.282 111.752C520.596 111.288 521.447 110.36 521.834 108.968C522.298 107.576 522.53 105.488 522.53 102.704V45.168C522.53 42.3067 522.298 40.2187 521.834 38.904C521.447 37.512 520.635 36.584 519.398 36.12C518.16 35.5787 516.304 35.2693 513.83 35.192V32.872C517 32.9493 520.364 33.0267 523.922 33.104C527.479 33.104 530.998 33.1427 534.478 33.22C537.958 33.22 541.206 33.22 544.222 33.22C547.238 33.22 549.712 33.22 551.646 33.22C554.894 33.22 558.606 33.22 562.782 33.22C566.958 33.1427 570.708 33.0267 574.034 32.872ZM63.224 152.872V155.192C60.5947 155.269 58.584 155.579 57.192 156.12C55.8773 156.584 54.988 157.512 54.524 158.904C54.06 160.219 53.828 162.307 53.828 165.168V222.704C53.828 225.488 54.0213 227.615 54.408 229.084C54.872 230.476 55.7227 231.443 56.96 231.984C58.1973 232.448 60.0533 232.68 62.528 232.68H66.008C65.6987 235.696 65.4667 238.596 65.312 241.38C65.2347 244.164 65.196 246.291 65.196 247.76C65.196 249.307 65.2347 250.699 65.312 251.936C65.3893 253.251 65.4667 254.372 65.544 255.3H62.876C62.1027 250.196 60.8653 246.136 59.164 243.12C57.4627 240.181 55.2587 238.093 52.552 236.856C49.9227 235.619 46.7907 235 43.156 235H15.084C11.4493 235 8.27867 235.619 5.572 236.856C2.94267 238.093 0.777334 240.181 -0.923999 243.12C-2.62533 246.136 -3.86267 250.196 -4.636 255.3H-7.304C-7.14933 254.372 -7.072 253.251 -7.072 251.936C-6.99467 250.699 -6.956 249.307 -6.956 247.76C-6.956 246.291 -7.03333 244.164 -7.188 241.38C-7.26533 238.596 -7.45867 235.696 -7.768 232.68H25.988C28.6173 232.68 30.5893 232.448 31.904 231.984C33.296 231.443 34.224 230.476 34.688 229.084C35.152 227.615 35.384 225.488 35.384 222.704V165.168C35.384 162.307 35.1133 160.18 34.572 158.788C34.108 157.396 33.2573 156.468 32.02 156.004C30.86 155.463 29.3133 155.192 27.38 155.192H25.872C24.248 155.192 22.9333 155.463 21.928 156.004C20.9227 156.468 20.1493 157.435 19.608 158.904C19.144 160.296 18.796 162.384 18.564 165.168C18.1773 169.576 17.7907 174.332 17.404 179.436C17.0947 184.54 16.6693 189.721 16.128 194.98C15.5867 200.161 14.8133 205.149 13.808 209.944C12.88 214.661 11.604 218.915 9.98 222.704C8.356 226.416 6.268 229.393 3.716 231.636C1.164 233.801 -1.968 234.884 -5.68 234.884V232.68C-2.12267 232.68 0.854667 231.365 3.252 228.736C5.64933 226.029 7.58267 222.395 9.052 217.832C10.5213 213.269 11.6813 208.088 12.532 202.288C13.46 196.411 14.156 190.301 14.62 183.96C15.084 177.619 15.5093 171.355 15.896 165.168C16.0507 162.461 15.896 160.412 15.432 159.02C15.0453 157.628 14.156 156.661 12.764 156.12C11.372 155.579 9.284 155.269 6.5 155.192V152.872C8.124 152.949 10.0573 153.027 12.3 153.104C14.5427 153.181 16.592 153.22 18.448 153.22C20.2267 153.22 21.928 153.181 23.552 153.104C25.2533 152.949 26.9547 152.872 28.656 152.872C31.5947 152.872 34.2627 152.949 36.66 153.104C39.0573 153.181 41.9187 153.22 45.244 153.22C47.1773 153.22 49.2653 153.22 51.508 153.22C53.828 153.143 55.9933 153.104 58.004 153.104C60.092 153.027 61.832 152.949 63.224 152.872ZM117.32 235V232.68C119.795 232.525 121.651 232.216 122.888 231.752C124.125 231.288 124.937 230.36 125.324 228.968C125.788 227.576 126.02 225.488 126.02 222.704V165.168C126.02 162.307 125.788 160.219 125.324 158.904C124.937 157.512 124.087 156.584 122.772 156.12C121.535 155.579 119.717 155.269 117.32 155.192V152.872C119.408 152.949 122.115 153.027 125.44 153.104C128.843 153.181 132.207 153.22 135.532 153.22C139.089 153.22 142.415 153.181 145.508 153.104C148.679 153.027 151.231 152.949 153.164 152.872V155.192C150.689 155.269 148.795 155.579 147.48 156.12C146.243 156.584 145.431 157.512 145.044 158.904C144.657 160.219 144.464 162.307 144.464 165.168V222.704C144.464 225.488 144.657 227.576 145.044 228.968C145.508 230.36 146.359 231.288 147.596 231.752C148.833 232.216 150.689 232.525 153.164 232.68V235C151.231 234.845 148.679 234.768 145.508 234.768C142.415 234.691 139.089 234.652 135.532 234.652C132.207 234.652 128.843 234.691 125.44 234.768C122.115 234.768 119.408 234.845 117.32 235ZM68.1359 235V232.68C70.6105 232.525 72.4665 232.216 73.7039 231.752C74.9412 231.288 75.7532 230.36 76.1399 228.968C76.6039 227.576 76.8359 225.488 76.8359 222.704V165.168C76.8359 162.307 76.6039 160.219 76.1399 158.904C75.7532 157.512 74.9025 156.584 73.5879 156.12C72.3505 155.579 70.5332 155.269 68.1359 155.192V152.872C70.1465 152.949 72.7372 153.027 75.9079 153.104C79.1559 153.181 82.6745 153.22 86.4639 153.22C89.7119 153.22 92.9212 153.181 96.0919 153.104C99.2625 153.027 101.892 152.949 103.98 152.872V155.192C101.505 155.269 99.6105 155.579 98.2959 156.12C97.0585 156.584 96.2465 157.512 95.8599 158.904C95.4732 160.219 95.2799 162.307 95.2799 165.168V222.704C95.2799 225.488 95.4732 227.576 95.8599 228.968C96.3239 230.36 97.1745 231.288 98.4119 231.752C99.6492 232.216 101.505 232.525 103.98 232.68V235C101.892 234.845 99.2625 234.768 96.0919 234.768C92.9212 234.691 89.7119 234.652 86.4639 234.652C82.6745 234.652 79.1559 234.691 75.9079 234.768C72.7372 234.768 70.1465 234.845 68.1359 235ZM87.7399 194.864V192.544H133.56V194.864H87.7399ZM230.513 152.872V155.192C228.039 155.269 226.183 155.579 224.945 156.12C223.708 156.584 222.857 157.512 222.393 158.904C222.007 160.219 221.813 162.307 221.813 165.168V222.704C221.813 225.488 222.007 227.576 222.393 228.968C222.857 230.36 223.708 231.288 224.945 231.752C226.183 232.216 228.039 232.525 230.513 232.68V235C228.58 234.845 225.951 234.768 222.625 234.768C219.377 234.691 215.897 234.652 212.185 234.652C209.015 234.652 205.805 234.691 202.557 234.768C199.309 234.768 196.68 234.845 194.669 235V232.68C197.067 232.525 198.884 232.216 200.121 231.752C201.436 231.288 202.287 230.36 202.673 228.968C203.137 227.576 203.369 225.488 203.369 222.704V165.168C203.369 161.147 202.905 158.479 201.977 157.164C201.127 155.849 199.193 155.192 196.177 155.192C190.919 155.192 187.207 156.855 185.041 160.18C182.876 163.505 181.793 168.145 181.793 174.1C181.793 177.735 182.219 181.06 183.069 184.076C183.92 187.015 185.544 189.373 187.941 191.152C190.339 192.853 193.819 193.704 198.381 193.704H208.357C208.357 193.704 208.357 194.091 208.357 194.864C208.357 195.637 208.357 196.024 208.357 196.024H197.221C190.339 196.024 184.655 195.405 180.169 194.168C175.684 192.931 172.127 191.268 169.497 189.18C166.945 187.092 165.128 184.733 164.045 182.104C163.04 179.475 162.537 176.729 162.537 173.868C162.537 169.46 163.697 165.709 166.017 162.616C168.415 159.445 171.972 157.048 176.689 155.424C181.484 153.8 187.477 152.988 194.669 152.988C196.139 152.988 198.575 153.027 201.977 153.104C205.457 153.181 209.092 153.22 212.881 153.22C216.129 153.22 219.377 153.181 222.625 153.104C225.951 153.027 228.58 152.949 230.513 152.872ZM207.661 194.052L207.429 196.024H194.901C192.504 196.024 190.609 196.759 189.217 198.228C187.903 199.62 186.859 201.553 186.085 204.028C185.312 206.425 184.655 209.248 184.113 212.496L182.025 224.096C181.175 228.891 179.396 232.177 176.689 233.956C173.983 235.735 170.58 236.624 166.481 236.624C163.156 236.624 160.295 236.083 157.897 235C155.5 233.995 153.296 232.293 151.285 229.896L152.909 228.504C153.683 229.355 154.379 230.012 154.997 230.476C155.693 230.863 156.544 231.095 157.549 231.172C159.019 231.172 160.14 230.553 160.913 229.316C161.687 228.079 162.383 225.913 163.001 222.82L165.437 210.872C166.443 205.923 168.724 202.365 172.281 200.2C175.839 198.035 180.943 196.527 187.593 195.676C189.063 195.444 190.532 195.251 192.001 195.096C193.471 194.941 195.404 194.787 197.801 194.632C200.276 194.4 203.563 194.207 207.661 194.052Z" fill="#1E1E1E"/>
</g>
</svg>
