<svg width="41" height="41" viewBox="0 0 41 41" fill="none" xmlns="http://www.w3.org/2000/svg">
<path d="M20.6876 0.6875C17.2138 0.688437 13.8001 1.59384 10.7826 3.3146C7.76498 5.03536 5.2475 7.51216 3.47791 10.5012C1.70832 13.4903 0.747614 16.8886 0.690342 20.3617C0.633069 23.8348 1.48121 27.2629 3.15128 30.3087L1.50765 36.0612C1.35686 36.5887 1.34991 37.147 1.48753 37.6782C1.62515 38.2094 1.90232 38.6941 2.29032 39.0821C2.67833 39.4701 3.16304 39.7472 3.69423 39.8849C4.22543 40.0225 4.78376 40.0156 5.31138 39.8648L11.0645 38.2213C13.738 39.6882 16.7115 40.5244 19.7578 40.6659C22.8041 40.8075 25.8424 40.2506 28.6404 39.038C31.4384 37.8253 33.9221 35.989 35.9015 33.6693C37.881 31.3496 39.3037 28.6081 40.061 25.6543C40.8184 22.7004 40.8902 19.6126 40.271 16.6268C39.6518 13.6409 38.3581 10.8362 36.4886 8.42704C34.6192 6.01786 32.2236 4.06803 29.4849 2.72661C26.7463 1.38519 23.7372 0.687713 20.6876 0.6875ZM25.327 32.9929C25.3213 32.9974 25.3108 32.9929 25.3027 32.9929C23.0784 32.9929 20.8758 32.5544 18.8211 31.7025C16.7663 30.8506 14.8997 29.602 13.328 28.0282C11.7562 26.4543 10.5102 24.586 9.66114 22.5302C8.81209 20.4744 8.37669 18.2714 8.37984 16.0472C8.38685 14.2156 9.11925 12.4613 10.4167 11.1684C11.7142 9.87543 13.4711 9.14914 15.3029 9.14845C15.8077 9.14909 16.3033 9.2828 16.7399 9.53611C17.1765 9.78942 17.5385 10.1534 17.7896 10.5912L20.0378 14.5258C20.3087 15.0004 20.4484 15.5385 20.4426 16.0849C20.4367 16.6313 20.2857 17.1664 20.0048 17.6351L18.6373 19.9141C19.3136 21.0866 20.2871 22.0601 21.4597 22.7364L23.7387 21.3689C24.2075 21.088 24.7426 20.9369 25.2891 20.9311C25.8355 20.9253 26.3737 21.0649 26.8484 21.3357L30.7829 23.5839C31.2209 23.8348 31.5849 24.1968 31.8383 24.6334C32.0917 25.0699 32.2254 25.5656 32.226 26.0703C32.2253 27.9019 31.499 29.6587 30.206 30.9561C28.913 32.2535 27.1587 32.9858 25.327 32.9929Z" fill="#232631"/>
<path d="M22.3126 25.8125C22.0999 25.9402 21.8594 26.0146 21.6117 26.0292C21.364 26.0438 21.1164 25.9983 20.8901 25.8965C18.4839 24.8156 16.5579 22.8897 15.4769 20.4837C15.3751 20.2574 15.3296 20.0098 15.3442 19.7621C15.3588 19.5144 15.4331 19.274 15.5608 19.0612L17.3663 16.0521L15.1805 12.2271C14.1854 12.2583 13.2412 12.6743 12.5467 13.3876C11.8521 14.1009 11.4614 15.0558 11.4568 16.0513C11.4542 17.8712 11.8105 19.6737 12.5051 21.3557C13.1998 23.0378 14.2193 24.5664 15.5053 25.8541C16.7913 27.1418 18.3185 28.1634 19.9997 28.8604C21.6809 29.5575 23.483 29.9162 25.303 29.9162H25.3227C26.3183 29.9116 27.2732 29.521 27.9866 28.8265C28.6999 28.132 29.116 27.1878 29.1472 26.1928L25.3219 24.0071L22.3126 25.8125Z" fill="#232631"/>
</svg>
