<svg width="41" height="41" viewBox="0 0 41 41" fill="none" xmlns="http://www.w3.org/2000/svg">
<path d="M28.4493 12.4135C28.4573 12.4135 28.4679 12.4135 28.4785 12.4135C28.7561 12.4135 29.0137 12.4998 29.2249 12.6486L29.2209 12.6459C29.375 12.7801 29.4785 12.9686 29.5038 13.1811V13.1851C29.5303 13.3471 29.545 13.533 29.545 13.7229C29.545 13.8093 29.5423 13.8943 29.5357 13.9793V13.9673C29.2368 17.1134 27.9407 24.7429 27.282 28.2648C27.0031 29.7561 26.4546 30.2555 25.9234 30.3033C24.7694 30.4109 23.8929 29.541 22.7747 28.8079C21.0244 27.6592 20.035 26.9447 18.3365 25.8252C16.3723 24.533 17.6459 23.8199 18.7641 22.6592C19.0576 22.3538 24.1452 17.7256 24.2448 17.3059C24.2501 17.2807 24.2528 17.2528 24.2528 17.2236C24.2528 17.12 24.2143 17.0257 24.1519 16.954C24.0828 16.9089 23.9965 16.8836 23.9062 16.8836C23.8464 16.8836 23.7893 16.8956 23.7362 16.9155L23.7388 16.9142C23.5635 16.954 20.7676 18.8017 15.3511 22.4573C14.7601 22.9235 14.0137 23.2183 13.201 23.2528H13.193C12.0416 23.1134 10.9965 22.8571 10.0044 22.4919L10.1027 22.5237C8.85704 22.1174 7.86766 21.9036 7.95265 21.2156C7.9978 20.858 8.49094 20.4919 9.43207 20.1174C15.2293 17.5915 19.0952 15.9266 21.0297 15.1227C23.1638 13.9899 25.6379 13.0576 28.2395 12.4534L28.448 12.4122L28.4493 12.4135ZM20.2262 0.441406C9.20099 0.467967 0.272705 9.41219 0.272705 20.4414C0.272705 31.4866 9.22623 40.4414 20.2727 40.4414C31.3192 40.4414 40.2727 31.4879 40.2727 20.4414C40.2727 9.41219 31.3444 0.467967 20.3218 0.441406H20.3192C20.2882 0.441406 20.2572 0.441406 20.2262 0.441406Z" fill="#232631"/>
</svg>
