<svg width="41" height="42" viewBox="0 0 41 42" fill="none" xmlns="http://www.w3.org/2000/svg">
<path d="M32.4682 0.853098C32.3194 0.860993 31.7555 0.912314 31.223 0.963634L30.2519 1.05838L29.825 1.27945C27.8867 2.27428 25.0321 4.44949 22.7805 6.64443C21.7976 7.60373 21.316 8.14062 19.9219 9.81841C19.593 10.2132 19.3111 10.529 19.2915 10.5172C19.2719 10.5053 18.8647 10.0474 18.383 9.49865C17.9053 8.94991 17.3375 8.31038 17.1221 8.06956C16.9107 7.8327 16.711 7.58399 16.6836 7.51688C16.6092 7.33134 16.4799 7.18527 16.3155 7.10237C16.2372 7.06289 16.1197 6.96814 16.061 6.89709C15.9122 6.71944 14.291 4.96269 13.8211 4.46923C12.8931 3.50203 11.6204 2.38087 10.8529 1.86372C10.2068 1.42947 9.59987 1.18076 8.82454 1.03469C8.29982 0.936 6.63952 0.936 6.03648 1.03864C4.70511 1.25971 4.09424 1.47684 2.98215 2.12032C2.30863 2.51115 1.85831 2.84276 1.45498 3.25332C0.867611 3.84943 0.444704 4.54029 0.276324 5.17587C0.0374596 6.09569 -0.00169845 8.72094 0.205839 10.2171C0.397714 11.6344 0.624831 12.6924 1.10256 14.4294C1.50197 15.8663 1.76042 16.5848 2.59057 18.5311C3.15053 19.8496 3.54211 20.6786 4.60329 22.7946C6.08739 25.7475 6.72175 26.9358 8.16277 29.4268C8.53868 30.0782 9.14955 31.1599 9.52155 31.835C10.2773 33.2048 10.5279 33.6351 11.315 34.855C12.0707 36.0353 13.0732 37.4368 13.7076 38.2027C13.9895 38.5422 15.9748 40.6424 16.0414 40.666C16.057 40.6739 16.3586 40.9345 16.7071 41.2503C17.0556 41.5661 17.3571 41.8267 17.3767 41.8346C17.4197 41.8504 17.9836 41.3806 18.43 40.9542C18.6141 40.7805 19.0918 40.3621 19.4873 40.0265C21.1163 38.6527 22.2597 37.571 22.9097 36.7894C23.1681 36.4735 23.9474 35.5498 24.6366 34.7365C26.2577 32.8219 26.4613 32.5811 27.8123 30.9072C28.4388 30.1374 29.3081 29.0597 29.7506 28.5189C31.6302 26.2134 32.5348 25.0093 33.5411 23.4855C34.8725 21.4721 35.5773 20.2681 36.4192 18.5508C37.8759 15.59 39.3365 11.587 39.7868 9.32494C39.9513 8.50381 40.0022 8.07746 40.0531 7.16158C40.1119 5.97726 40.0218 4.20868 39.8612 3.5494C39.7359 3.0283 39.4305 2.57431 38.7883 1.95057C38.2793 1.45315 37.9973 1.27156 37.3512 1.0189L37.0497 0.90047L35.7771 0.864941C34.5671 0.829411 33.0634 0.825463 32.4682 0.853098ZM36.619 1.65054C37.0458 1.74134 37.6566 1.92293 37.6566 1.96636C37.6527 1.9782 37.5587 2.04926 37.4452 2.12032C37.3316 2.19533 37.0654 2.40456 36.85 2.58615C36.6385 2.76775 36.4349 2.91776 36.4036 2.91776C36.3644 2.91776 36.3253 2.8546 36.2979 2.74801C36.2665 2.62958 36.196 2.52694 36.0786 2.4164C35.7418 2.10453 35.3502 2.10848 34.8568 2.44009L34.6219 2.598L34.5044 2.46377C34.4418 2.39272 34.3321 2.30192 34.2616 2.27034C34.1011 2.18743 33.7722 2.19138 33.6116 2.27034C33.5215 2.31771 33.5881 2.22691 33.8544 1.95452C34.2225 1.57948 34.2264 1.57948 34.4418 1.56369C34.5632 1.55185 35.0135 1.55185 35.4442 1.55974C36.0355 1.56764 36.3253 1.59132 36.619 1.65054ZM8.30765 2.4243C8.56609 2.45983 8.92635 2.55063 9.11822 2.62958L9.26702 2.6888L8.98509 2.99277C8.82845 3.15858 8.49953 3.51782 8.25283 3.79811C8.00613 4.07445 7.7986 4.29947 7.78685 4.29947C7.77902 4.29947 7.82209 4.24026 7.88083 4.1692C8.05312 3.96392 8.10403 3.80206 8.04921 3.6402C7.97481 3.40728 7.6772 3.2849 7.48533 3.40334C7.39135 3.45861 6.98019 3.89286 4.97138 6.03648C4.12948 6.93656 3.37373 7.73795 3.29541 7.81296C3.2171 7.88797 3.54603 7.42608 4.02767 6.78655C4.50931 6.14701 5.20633 5.20351 5.57441 4.69425C5.9425 4.18499 6.37324 3.62441 6.52987 3.45071C6.92929 3.00462 7.14857 2.69274 7.19948 2.5072L7.24255 2.34534L7.6772 2.36903C7.91607 2.38482 8.20192 2.40851 8.30765 2.4243ZM5.62532 2.91382C5.22982 3.29675 5.05361 3.44281 5.04578 3.39544C5.02229 3.29675 4.8774 3.15463 4.79517 3.15463C4.75601 3.15463 4.72468 3.14279 4.72468 3.13094C4.72468 3.09936 5.13976 2.60589 5.22199 2.53483C5.25332 2.51115 5.42953 2.47167 5.61749 2.44404C5.80545 2.42035 5.98558 2.39272 6.0169 2.38482C6.04823 2.38087 6.10305 2.37298 6.13438 2.36903C6.1657 2.36903 5.93859 2.61379 5.62532 2.91382ZM3.09179 3.77442C2.7472 4.14156 2.23814 4.68635 1.96012 4.99033C1.68602 5.2943 1.44324 5.54696 1.42757 5.55485C1.36884 5.58249 1.44715 5.30615 1.56463 5.06928C1.80349 4.58371 2.36737 3.93233 2.8216 3.62046C3.01348 3.48624 3.65567 3.1191 3.69874 3.11515C3.70657 3.11515 3.43247 3.41123 3.09179 3.77442ZM39.1447 3.71126C39.1838 3.88496 39.1877 4.14946 39.1721 4.68635C39.1016 6.78655 38.7178 8.85911 38.0286 10.8883C37.7506 11.7015 37.7702 11.6699 37.6018 11.6502C37.5235 11.6423 37.4609 11.6304 37.4609 11.6225C37.4609 11.6186 37.5509 11.4765 37.6606 11.3067C37.9582 10.8567 38.06 10.5764 38.0561 10.2369C38.0521 9.78288 37.8446 9.45522 37.4413 9.26968C37.2651 9.18677 36.8657 9.17098 36.6934 9.23415C36.6072 9.26968 36.5955 9.26573 36.6268 9.22625C36.7638 9.05255 37.6057 7.88797 37.825 7.57215C38.1344 7.12211 38.3458 6.70759 38.3811 6.48257C38.4437 6.09175 38.2558 5.68513 37.9151 5.45616L37.7389 5.33773L38.0717 4.90743C38.4868 4.37843 38.8784 3.81785 38.9724 3.61651C39.0115 3.53756 39.0546 3.47045 39.0663 3.47045C39.082 3.47045 39.1172 3.57704 39.1447 3.71126ZM3.13878 5.30615C2.59448 5.85883 2.13633 6.31282 2.12067 6.31282C2.08543 6.31282 2.39869 5.87857 2.68846 5.51932C2.87251 5.29036 3.10354 5.08113 3.53036 4.75346C3.85537 4.5087 4.12165 4.30342 4.12557 4.30342C4.12948 4.29947 3.68699 4.75346 3.13878 5.30615ZM4.89306 4.44554C3.80838 5.85093 2.23423 7.95113 1.59987 8.83542C1.51764 8.95386 1.47065 8.99333 1.45498 8.95386C1.44324 8.92228 1.42366 8.65778 1.40799 8.3617L1.37667 7.8248L1.98362 7.23264C2.31646 6.90498 3.12703 6.11149 3.78097 5.468C4.43491 4.82452 4.9753 4.29947 4.98704 4.29947C4.99879 4.29947 4.95572 4.36658 4.89306 4.44554ZM12.0081 4.8719C12.0081 4.89953 11.9846 4.94295 11.9533 4.96664C11.9063 5.00612 11.8945 4.99033 11.871 4.89558C11.8554 4.82452 11.781 4.71793 11.6909 4.64293C11.6087 4.56792 11.5499 4.49686 11.5617 4.48502C11.5969 4.44949 12.0081 4.80873 12.0081 4.8719ZM14.06 6.94841C14.2714 7.16948 14.432 7.35502 14.4241 7.36292C14.4124 7.37476 14.3302 7.42213 14.2362 7.46951C14.1305 7.52478 14.0012 7.64321 13.8877 7.79322L13.7115 8.02614L13.688 7.88402C13.6566 7.69058 13.5666 7.56031 13.406 7.48135C13.1319 7.35108 12.9596 7.40634 12.6229 7.72611C12.4114 7.9235 12.3997 7.93139 12.5367 7.77348C12.987 7.25238 13.6292 6.54968 13.6527 6.54968C13.6684 6.54968 13.8524 6.72733 14.06 6.94841ZM24.8911 6.71944C24.8911 6.72733 24.8519 6.76681 24.805 6.81024L24.7149 6.88524L24.7893 6.79444C24.8598 6.71154 24.8911 6.68786 24.8911 6.71944ZM4.24696 7.84059C4.17255 7.94718 4.02767 8.15247 3.92194 8.30643C3.64 8.71699 2.10501 10.8488 1.96795 11.0225C1.8309 11.1962 1.82698 11.1922 1.75258 10.754L1.70559 10.4777L2.03061 10.1263C2.21073 9.93685 2.73545 9.37627 3.20143 8.8828C3.66742 8.39328 4.11382 7.9156 4.19605 7.82086C4.38792 7.59978 4.41142 7.61163 4.24696 7.84059ZM12.3605 7.98271C12.3605 7.99061 12.3214 8.03009 12.2744 8.07351L12.1843 8.14852L12.2587 8.05772C12.3292 7.97482 12.3605 7.95113 12.3605 7.98271ZM11.9298 8.45644C11.9298 8.46434 11.8906 8.50381 11.8436 8.54724L11.7536 8.62225L11.828 8.53145C11.8984 8.44855 11.9298 8.42486 11.9298 8.45644ZM16.151 9.24204C16.2567 9.35653 16.6718 9.82236 17.0751 10.2764C17.78 11.0698 17.8035 11.1054 17.7369 11.1764C17.6704 11.2475 17.6704 11.2475 17.6194 11.0817C17.5333 10.7777 17.2631 10.5764 16.9538 10.5764C16.7854 10.5764 16.5191 10.6909 16.3272 10.8369C16.1745 10.9554 16.1745 10.9554 16.1432 10.8369C16.1314 10.7817 16.0727 10.683 16.014 10.6119C15.8182 10.379 15.4971 10.3158 15.223 10.4579C14.9959 10.5724 14.0639 11.4686 12.5328 13.0398C11.2563 14.3465 9.67035 15.9137 9.89355 15.6492C9.94838 15.5821 10.2577 15.2544 10.5788 14.9189C11.0996 14.3781 12.1373 13.2569 14.2127 10.9948C14.5534 10.6238 15.082 10.0316 15.3874 9.68024C15.6929 9.32889 15.9474 9.04071 15.9513 9.04071C15.9552 9.03676 16.0453 9.13151 16.151 9.24204ZM2.26947 11.8397C2.3517 11.8397 2.3752 11.8594 2.3752 11.9226C2.3752 12.0015 2.18724 12.2739 2.13242 12.2739C2.11675 12.2739 2.08543 12.1989 2.06193 12.1042C2.03844 12.0134 2.00711 11.9028 1.99536 11.8633C1.9797 11.8002 1.99145 11.7923 2.06585 11.812C2.11675 11.8278 2.20682 11.8397 2.26947 11.8397ZM2.9939 14.6228L2.86467 14.8084L2.81768 14.6939C2.74328 14.5241 2.75503 14.5044 2.93516 14.461C3.02522 14.4412 3.10354 14.4254 3.11137 14.4294C3.1192 14.4333 3.06438 14.5202 2.9939 14.6228ZM3.88279 15.9177C3.96893 16.0598 4.25479 16.2216 4.41534 16.2216C4.4819 16.2216 4.56805 16.2651 4.63854 16.3361C4.87348 16.573 5.1241 16.5375 5.48435 16.2138C5.61357 16.0993 5.70755 16.0243 5.69972 16.0479C5.65665 16.1624 4.23521 18.0337 4.21171 18.01C4.15298 17.9429 3.31891 16.0479 3.33849 16.0164C3.35023 16.0006 3.39331 15.9848 3.43247 15.9848C3.47162 15.9848 3.55777 15.9414 3.61651 15.8861C3.75748 15.7598 3.78881 15.7637 3.88279 15.9177ZM34.7472 18.4205C34.1402 19.5377 33.8818 19.972 33.827 19.972C33.7917 19.9759 33.6704 20.0075 33.5568 20.047C33.4315 20.0904 33.3649 20.0983 33.3806 20.0707C33.4315 19.9878 34.7276 18.3929 34.7472 18.3929C34.755 18.3929 34.755 18.4047 34.7472 18.4205ZM13.966 21.2076C13.966 21.2116 13.8054 21.3774 13.6057 21.5708C13.406 21.7682 13.2846 21.8709 13.3395 21.8077C13.4217 21.7051 13.9308 21.1997 13.9582 21.1958C13.9621 21.1958 13.966 21.1997 13.966 21.2076ZM8.4447 23.2526C8.66399 23.4815 8.96551 23.5408 9.25136 23.4105L9.40799 23.3394L9.39233 23.4539C9.35317 23.7066 9.59595 24.0816 9.83482 24.1408L9.9288 24.1645L9.79957 24.3658C9.59987 24.6816 9.31793 25.262 9.24745 25.5107C9.10256 26.012 9.361 26.4779 9.81915 26.5489L9.97187 26.5726L9.81524 26.7503C9.73301 26.849 9.64294 26.9911 9.61553 27.0661C9.54896 27.2753 9.58812 27.599 9.7056 27.7767L9.80349 27.9306L9.67818 28.1833L9.55288 28.4359L9.39625 28.1596C8.77363 27.0858 7.70853 25.1001 7.3052 24.2632L7.17207 23.9987L7.7007 23.4855C8.15102 23.0552 8.23717 22.9881 8.26849 23.0433C8.29199 23.0789 8.3703 23.1736 8.4447 23.2526ZM10.9547 30.0703C10.8686 30.1966 10.7785 30.3506 10.755 30.4138L10.712 30.5283L10.5788 30.2953C10.5044 30.1651 10.4418 30.0466 10.4418 30.0269C10.4418 30.0111 10.5162 29.9993 10.6101 29.9993C10.7002 29.9993 10.8373 29.9637 10.9117 29.9242C10.9861 29.8808 11.0605 29.8453 11.08 29.8453C11.0957 29.8413 11.037 29.944 10.9547 30.0703ZM12.9675 31.5349C13.1593 31.5862 13.3786 31.5902 13.5078 31.5428C13.5979 31.5073 13.594 31.5231 13.4334 31.7876C13.2259 32.1271 13.1045 32.439 13.1045 32.6324C13.1045 33.039 13.5157 33.4338 13.9386 33.4338C14.1109 33.4338 14.4437 33.2798 14.6904 33.0903L14.9215 32.9087L14.7766 33.1022C14.2127 33.8601 13.6371 34.7721 13.5157 35.1037C13.453 35.2695 13.4413 35.2813 13.3982 35.2221C13.0654 34.7405 12.0355 32.9877 11.503 32.0008L11.3385 31.6968H11.4873C11.7379 31.6968 11.8984 31.6297 12.2 31.3928L12.4897 31.1638L12.6503 31.3257C12.7443 31.4244 12.8735 31.5073 12.9675 31.5349ZM15.0937 35.8498C15.0428 35.9209 14.8627 36.1735 14.6943 36.4064C14.526 36.6393 14.3772 36.8209 14.3654 36.8091C14.3537 36.7973 14.2675 36.6591 14.1735 36.5012L14.0052 36.2169L14.2597 36.1893C14.5181 36.1656 14.7883 36.0353 15.0428 35.8261C15.1995 35.6958 15.2073 35.6998 15.0937 35.8498ZM16.4055 38.2224C16.3468 38.3092 16.1588 38.5698 15.9944 38.7948L15.6929 39.2093L15.5636 38.9448L15.4344 38.6764L15.5715 38.558C15.6459 38.4908 15.8847 38.2777 16.1001 38.0803L16.4917 37.725L16.5034 37.8947C16.5152 38.025 16.4917 38.0961 16.4055 38.2224ZM18.8647 38.9172C19.0526 39.0001 19.0957 39.004 19.2641 38.9646C19.4951 38.9132 19.5264 38.9093 19.5264 38.9567C19.5264 39.0159 18.7276 39.9949 18.3713 40.3739C18.1872 40.5713 17.8857 40.8595 17.7017 41.0174L17.3688 41.3016L17.2044 41.2108C17.0007 41.0963 16.6679 40.8516 16.5935 40.7647C16.5465 40.7055 16.6562 40.5792 17.5333 39.6633L18.5279 38.6251L18.5906 38.7277C18.6258 38.783 18.7511 38.8698 18.8647 38.9172Z" fill="#232631"/>
</svg>
