<svg width="85" height="85" viewBox="0 0 85 85" fill="none" xmlns="http://www.w3.org/2000/svg">
<path d="M47.4562 50.8862V84.9999H75.5196C79.167 84.9999 82.1251 82.0434 82.1251 78.3939V50.8862H47.4562Z" fill="#D3D3D3"/>
<path d="M37.5338 50.8862H2.87695V78.3939C2.87695 82.0434 5.83594 84.9999 9.48294 84.9999H37.5338V50.8862ZM11.8828 78.0676C10.5133 78.0676 9.40217 76.9563 9.40217 75.5872V61.8232C9.40217 60.4539 10.5135 59.3428 11.8828 59.3428C13.2521 59.3428 14.3635 60.4543 14.3635 61.8232V75.5872C14.3635 76.9563 13.2523 78.0676 11.8828 78.0676Z" fill="#D3D3D3"/>
<path d="M77.6682 25.0186H65.2612C66.9737 24.1967 68.4101 23.3476 69.2787 22.4798C74.3892 17.3702 74.3892 9.08161 69.2787 3.97112C66.7205 1.4162 63.371 0.138941 60.0218 0.138941C56.6719 0.138941 53.3218 1.4162 50.7669 3.97112C48.6449 6.09374 46.6035 11.3329 44.9368 16.7317C44.1584 16.5181 43.3572 16.3685 42.5143 16.3685C41.6744 16.3685 40.873 16.5183 40.0982 16.7303C38.425 11.2827 36.3643 5.97238 34.2224 3.83197C31.6673 1.27705 28.321 0 24.968 0C21.6183 0 18.2687 1.27725 15.7136 3.83197C10.6033 8.94434 10.6033 17.2312 15.7136 22.3407C16.6278 23.2588 18.168 24.1567 20.0161 25.0186H7.33167C3.68447 25.0186 0.729248 27.9749 0.729248 31.6217V37.2404C0.729248 40.8876 3.68447 43.8424 7.33167 43.8424H37.5338V25.2806H47.4562V43.8424H77.6684C81.3151 43.8424 84.2708 40.8872 84.2708 37.2402V31.6215C84.2706 27.9749 81.3149 25.0186 77.6682 25.0186ZM55.4449 8.64867C56.6656 7.42708 58.2932 6.75351 60.0218 6.75351C61.7527 6.75351 63.3779 7.42708 64.6024 8.64867C65.8232 9.87089 66.4951 11.4959 66.4951 13.2256C66.4951 14.9552 65.8232 16.58 64.6085 17.7945C63.2419 19.0837 57.8902 21.0923 51.2741 22.9632C51.0871 22.3216 50.8345 21.7146 50.5152 21.1394C52.3177 14.9136 54.2107 9.95334 55.4449 8.64867ZM20.3909 8.50973C21.6121 7.28897 23.2398 6.6154 24.9682 6.6154C26.6993 6.6154 28.3244 7.2873 29.5418 8.50638C30.7857 9.82277 32.701 14.8472 34.5162 21.1377C34.2158 21.6769 33.9772 22.2459 33.7895 22.8447C27.1421 20.9715 21.7573 18.9527 20.3907 17.6642C17.868 15.1398 17.868 11.0341 20.3909 8.50973Z" fill="#D3D3D3"/>
</svg>
