<svg width="87" height="123" viewBox="0 0 87 123" fill="none" xmlns="http://www.w3.org/2000/svg">
<path d="M31.8506 14.9362C32.2592 15.1916 32.7289 15.3192 33.1937 15.3192C33.587 15.3192 33.9751 15.2272 34.3377 15.0484L43.407 10.5138L52.4762 15.0484C52.8389 15.2272 53.2269 15.3192 53.6202 15.3192C54.0848 15.3192 54.5547 15.1916 54.9633 14.9362C55.714 14.4715 56.1735 13.6493 56.1735 12.7658V2.55257C56.1735 1.66905 55.714 0.847056 54.9633 0.382198C54.2126 -0.0876859 53.2678 -0.123352 52.4815 0.269934L43.4122 4.80457L34.3427 0.269934C33.5511 -0.123352 32.6116 -0.0824198 31.8609 0.382198C31.1103 0.846816 30.6404 1.66905 30.6404 2.55257V12.7658C30.6404 13.6493 31.1 14.4713 31.8506 14.9362Z" fill="#D3D3D3"/>
<path d="M86.7209 109.122C85.3268 104.005 81.7063 89.5635 81.7063 84.2578C81.7063 80.6627 82.7277 75.6532 83.9124 69.8573C84.8672 65.1798 85.9449 59.8791 86.7874 53.981C86.905 53.1435 86.6036 52.3062 85.9858 51.7393C73.2092 40.0351 76.5438 13.3685 76.5795 13.103C76.6764 12.3727 76.4519 11.6374 75.9667 11.0859C75.4815 10.5344 74.7821 10.2177 74.0467 10.2177H63.8335C62.4241 10.2177 61.2801 11.3616 61.2801 12.771V17.8775C61.2801 39.5958 50.6073 49.4565 43.5962 53.5928C41.0224 52.8677 25.5342 47.322 25.5342 17.8723V12.7658C25.5342 11.3564 24.3903 10.2124 22.9809 10.2124H12.7676C12.0323 10.2124 11.3326 10.5291 10.8476 11.0806C10.3624 11.6321 10.1379 12.3675 10.2349 13.1028C10.2705 13.3683 13.6358 40.0042 0.828556 51.7341C0.205475 52.3009 -0.0956528 53.1435 0.0269049 53.9758C0.869489 59.8739 1.95216 65.1745 2.90198 69.852C4.08663 75.6532 5.10802 80.6627 5.10802 84.2576C5.10802 89.5632 1.48754 104 0.0934498 109.121C-0.253877 110.403 0.43551 111.736 1.6867 112.19L29.7727 122.404C30.0535 122.506 30.3499 122.557 30.6409 122.557C31.4019 122.557 32.1373 122.22 32.6375 121.597L39.6846 112.788L32.5353 104.617C31.3148 103.223 30.6407 101.431 30.6407 99.5773V79.1511C30.6407 77.7417 31.7847 76.5977 33.1941 76.5977C34.6035 76.5977 35.7474 77.7417 35.7474 79.1511V99.5773C35.7474 100.195 35.9722 100.793 36.3806 101.257L54.2536 121.684C54.7489 122.25 55.4486 122.557 56.1736 122.557C56.4647 122.557 56.7608 122.506 57.0469 122.404L85.1329 112.19C86.3839 111.736 87.0732 110.403 86.7209 109.122ZM30.5076 100.384C30.1502 101.457 29.1545 102.131 28.0871 102.131C27.8216 102.131 27.5509 102.09 27.2802 101.998L11.9605 96.8913C10.6226 96.447 9.90261 95.002 10.3469 93.6639C10.7912 92.3311 12.2312 91.5957 13.5743 92.0503L28.894 97.1568C30.2319 97.6013 30.9572 99.0464 30.5076 100.384ZM48.5135 91.9177C47.1041 91.9177 45.9602 90.7737 45.9602 89.3643C45.9602 87.9549 47.1041 86.8109 48.5135 86.8109C49.923 86.8109 51.0669 87.9549 51.0669 89.3643C51.0667 90.7737 49.923 91.9177 48.5135 91.9177ZM48.5135 71.4912C47.1041 71.4912 45.9602 70.3473 45.9602 68.9379C45.9602 67.5285 47.1041 66.3845 48.5135 66.3845C49.923 66.3845 51.0669 67.5285 51.0669 68.9379C51.0669 70.3473 49.923 71.4912 48.5135 71.4912ZM74.8531 96.8913L59.5334 101.998C59.2627 102.09 58.9922 102.131 58.7265 102.131C57.6592 102.131 56.6634 101.457 56.306 100.384C55.8617 99.0464 56.5818 97.6011 57.9196 97.1568L73.2393 92.0503C74.5874 91.5957 76.0225 92.3311 76.4667 93.6639C76.9163 95.002 76.191 96.447 74.8531 96.8913Z" fill="#D3D3D3"/>
</svg>
