<svg width="83" height="128" viewBox="0 0 83 128" fill="none" xmlns="http://www.w3.org/2000/svg">
<path d="M4.15 87.9994H78.85C81.1408 87.9994 83 86.2074 83 83.9993V75.9992C83 69.3711 77.4266 63.999 70.55 63.999H49.8L53.1325 12.6303C53.5475 6.22617 48.6546 0.274077 42.0022 0.0100731C35.0219 -0.269931 29.3986 5.32615 29.8261 11.9783L33.2 63.999H12.45C5.57345 63.999 0 69.3711 0 75.9992V83.9993C0 86.2074 1.8592 87.9994 4.15 87.9994ZM41.5 7.99819C43.7908 7.99819 45.65 9.79022 45.65 11.9983C45.65 14.2063 43.7908 15.9983 41.5 15.9983C39.2092 15.9983 37.35 14.2063 37.35 11.9983C37.35 9.79022 39.2092 7.99819 41.5 7.99819ZM16.6 116V112C16.6 107.584 12.8857 104 8.3 104H4.15V91.9995H78.85V108H74.7C70.1143 108 66.4 111.58 66.4 116C66.4 118.208 64.5408 120 62.25 120H58.1C55.8092 120 53.95 118.416 53.95 116C53.95 111.66 50.1445 108 45.65 108C43.3592 108 41.5 106.208 41.5 104C41.5 99.5796 37.7816 95.9995 33.2 95.9995C28.6184 95.9995 24.9 99.5796 24.9 104V116C24.9 118.208 23.0408 120 20.75 120C18.4592 120 16.6 118.208 16.6 116ZM78.85 112V116C78.85 122.628 73.2766 128 66.4 128H16.6C9.72345 128 4.15 122.628 4.15 116V108H8.3C10.5866 108 12.45 109.796 12.45 112V116C12.45 120.856 16.9611 124.712 22.1527 123.888C26.2322 123.24 29.05 119.536 29.05 115.548V104C29.05 101.796 30.9134 99.9996 33.2 99.9996C35.4908 99.9996 37.35 101.796 37.35 104C37.35 108.408 41.0684 111.996 45.6459 112C47.7789 112 49.6921 113.456 49.7793 115.512C49.9743 120.1 53.1947 124 57.9423 124H62.3911C67.0599 124 70.2595 120.232 70.5583 115.74C70.6994 113.656 72.5005 112 74.7 112H78.85Z" fill="#D3D3D3"/>
</svg>
